<svg xmlns="http://www.w3.org/2000/svg" xmlns:xlink="http://www.w3.org/1999/xlink" width="500" zoomAndPan="magnify" viewBox="0 0 375 374.999991" height="500" preserveAspectRatio="xMidYMid meet" version="1.0"><defs><g/><clipPath id="ff725e3cfc"><path d="M 177.742188 78.691406 L 327.730469 78.691406 L 327.730469 219.339844 L 177.742188 219.339844 Z M 177.742188 78.691406 " clip-rule="nonzero"/></clipPath><clipPath id="88a4b8d2bb"><path d="M 252.5625 78.691406 C 211.238281 78.691406 177.742188 110.179688 177.742188 149.015625 C 177.742188 187.855469 211.238281 219.339844 252.5625 219.339844 C 293.882812 219.339844 327.378906 187.855469 327.378906 149.015625 C 327.378906 110.179688 293.882812 78.691406 252.5625 78.691406 Z M 252.5625 78.691406 " clip-rule="nonzero"/></clipPath><clipPath id="86a5b42eb3"><path d="M 0.742188 0.691406 L 150.601562 0.691406 L 150.601562 141.339844 L 0.742188 141.339844 Z M 0.742188 0.691406 " clip-rule="nonzero"/></clipPath><clipPath id="d3a74dff59"><path d="M 75.5625 0.691406 C 34.238281 0.691406 0.742188 32.179688 0.742188 71.015625 C 0.742188 109.855469 34.238281 141.339844 75.5625 141.339844 C 116.882812 141.339844 150.378906 109.855469 150.378906 71.015625 C 150.378906 32.179688 116.882812 0.691406 75.5625 0.691406 Z M 75.5625 0.691406 " clip-rule="nonzero"/></clipPath><clipPath id="d11d8dc898"><rect x="0" width="151" y="0" height="142"/></clipPath><clipPath id="5ff3116e76"><path d="M 49.625 78.691406 L 190.269531 78.691406 L 190.269531 219.339844 L 49.625 219.339844 Z M 49.625 78.691406 " clip-rule="nonzero"/></clipPath><clipPath id="3a7f76a3e7"><path d="M 119.945312 78.691406 C 81.109375 78.691406 49.625 110.179688 49.625 149.015625 C 49.625 187.855469 81.109375 219.339844 119.945312 219.339844 C 158.785156 219.339844 190.269531 187.855469 190.269531 149.015625 C 190.269531 110.179688 158.785156 78.691406 119.945312 78.691406 Z M 119.945312 78.691406 " clip-rule="nonzero"/></clipPath><clipPath id="3840e9312e"><path d="M 0.625 0.691406 L 141.269531 0.691406 L 141.269531 141.339844 L 0.625 141.339844 Z M 0.625 0.691406 " clip-rule="nonzero"/></clipPath><clipPath id="87168d8dbd"><path d="M 70.945312 0.691406 C 32.109375 0.691406 0.625 32.179688 0.625 71.015625 C 0.625 109.855469 32.109375 141.339844 70.945312 141.339844 C 109.785156 141.339844 141.269531 109.855469 141.269531 71.015625 C 141.269531 32.179688 109.785156 0.691406 70.945312 0.691406 Z M 70.945312 0.691406 " clip-rule="nonzero"/></clipPath><clipPath id="c264d02c69"><rect x="0" width="142" y="0" height="142"/></clipPath><clipPath id="cae1d2cf6b"><rect x="0" width="150" y="0" height="349"/></clipPath><clipPath id="453031bb32"><rect x="0" width="144" y="0" height="293"/></clipPath><clipPath id="23b0e99b3d"><path d="M 110.351562 196.355469 L 138.101562 196.355469 L 138.101562 224.105469 L 110.351562 224.105469 Z M 110.351562 196.355469 " clip-rule="nonzero"/></clipPath><clipPath id="1eece6cbc8"><path d="M 110.351562 210.410156 C 110.351562 214.140625 111.832031 217.714844 114.464844 220.347656 C 117.101562 222.984375 120.675781 224.464844 124.402344 224.464844 C 128.132812 224.464844 131.707031 222.984375 134.34375 220.347656 C 136.976562 217.714844 138.457031 214.140625 138.457031 210.410156 C 138.457031 206.683594 136.976562 203.109375 134.34375 200.472656 C 131.707031 197.839844 128.132812 196.355469 124.402344 196.355469 C 120.675781 196.355469 117.101562 197.839844 114.464844 200.472656 C 111.832031 203.109375 110.351562 206.683594 110.351562 210.410156 Z M 110.351562 210.410156 " clip-rule="nonzero"/></clipPath><clipPath id="14b96cbd88"><path d="M 243.199219 135.484375 L 253.277344 135.484375 L 253.277344 145.5625 L 243.199219 145.5625 Z M 243.199219 135.484375 " clip-rule="nonzero"/></clipPath><clipPath id="6063a0dc9f"><path d="M 248.238281 135.484375 C 245.457031 135.484375 243.199219 137.742188 243.199219 140.523438 C 243.199219 143.304688 245.457031 145.5625 248.238281 145.5625 C 251.019531 145.5625 253.277344 143.304688 253.277344 140.523438 C 253.277344 137.742188 251.019531 135.484375 248.238281 135.484375 Z M 248.238281 135.484375 " clip-rule="nonzero"/></clipPath><clipPath id="5ad3abe9e4"><path d="M 0.199219 0.484375 L 10.277344 0.484375 L 10.277344 10.5625 L 0.199219 10.5625 Z M 0.199219 0.484375 " clip-rule="nonzero"/></clipPath><clipPath id="83cbf671d0"><path d="M 5.238281 0.484375 C 2.457031 0.484375 0.199219 2.742188 0.199219 5.523438 C 0.199219 8.304688 2.457031 10.5625 5.238281 10.5625 C 8.019531 10.5625 10.277344 8.304688 10.277344 5.523438 C 10.277344 2.742188 8.019531 0.484375 5.238281 0.484375 Z M 5.238281 0.484375 " clip-rule="nonzero"/></clipPath><clipPath id="7dc0b051f8"><rect x="0" width="11" y="0" height="11"/></clipPath><clipPath id="d2ef258510"><path d="M 251.683594 143.96875 L 261.761719 143.96875 L 261.761719 154.046875 L 251.683594 154.046875 Z M 251.683594 143.96875 " clip-rule="nonzero"/></clipPath><clipPath id="93a1af92d4"><path d="M 256.722656 143.96875 C 253.941406 143.96875 251.683594 146.226562 251.683594 149.007812 C 251.683594 151.789062 253.941406 154.046875 256.722656 154.046875 C 259.503906 154.046875 261.761719 151.789062 261.761719 149.007812 C 261.761719 146.226562 259.503906 143.96875 256.722656 143.96875 Z M 256.722656 143.96875 " clip-rule="nonzero"/></clipPath><clipPath id="c197e32b3f"><path d="M 0.683594 0.96875 L 10.761719 0.96875 L 10.761719 11.046875 L 0.683594 11.046875 Z M 0.683594 0.96875 " clip-rule="nonzero"/></clipPath><clipPath id="b74c1a5595"><path d="M 5.722656 0.96875 C 2.941406 0.96875 0.683594 3.226562 0.683594 6.007812 C 0.683594 8.789062 2.941406 11.046875 5.722656 11.046875 C 8.503906 11.046875 10.761719 8.789062 10.761719 6.007812 C 10.761719 3.226562 8.503906 0.96875 5.722656 0.96875 Z M 5.722656 0.96875 " clip-rule="nonzero"/></clipPath><clipPath id="b44d2348b4"><rect x="0" width="11" y="0" height="12"/></clipPath><clipPath id="810ac9a9e0"><path d="M 243.199219 152.472656 L 253.277344 152.472656 L 253.277344 162.550781 L 243.199219 162.550781 Z M 243.199219 152.472656 " clip-rule="nonzero"/></clipPath><clipPath id="0937aa7675"><path d="M 248.238281 152.472656 C 245.457031 152.472656 243.199219 154.730469 243.199219 157.511719 C 243.199219 160.292969 245.457031 162.550781 248.238281 162.550781 C 251.019531 162.550781 253.277344 160.292969 253.277344 157.511719 C 253.277344 154.730469 251.019531 152.472656 248.238281 152.472656 Z M 248.238281 152.472656 " clip-rule="nonzero"/></clipPath><clipPath id="5d2c9e3a5c"><path d="M 0.199219 0.472656 L 10.277344 0.472656 L 10.277344 10.550781 L 0.199219 10.550781 Z M 0.199219 0.472656 " clip-rule="nonzero"/></clipPath><clipPath id="976f3379e9"><path d="M 5.238281 0.472656 C 2.457031 0.472656 0.199219 2.730469 0.199219 5.511719 C 0.199219 8.292969 2.457031 10.550781 5.238281 10.550781 C 8.019531 10.550781 10.277344 8.292969 10.277344 5.511719 C 10.277344 2.730469 8.019531 0.472656 5.238281 0.472656 Z M 5.238281 0.472656 " clip-rule="nonzero"/></clipPath><clipPath id="c788b79722"><rect x="0" width="11" y="0" height="11"/></clipPath><clipPath id="83d1271b98"><path d="M 234.714844 143.96875 L 244.792969 143.96875 L 244.792969 154.046875 L 234.714844 154.046875 Z M 234.714844 143.96875 " clip-rule="nonzero"/></clipPath><clipPath id="92b5cfbfc1"><path d="M 239.753906 143.96875 C 236.972656 143.96875 234.714844 146.226562 234.714844 149.007812 C 234.714844 151.789062 236.972656 154.046875 239.753906 154.046875 C 242.535156 154.046875 244.792969 151.789062 244.792969 149.007812 C 244.792969 146.226562 242.535156 143.96875 239.753906 143.96875 Z M 239.753906 143.96875 " clip-rule="nonzero"/></clipPath><clipPath id="d991daa5c4"><path d="M 0.714844 0.96875 L 10.792969 0.96875 L 10.792969 11.046875 L 0.714844 11.046875 Z M 0.714844 0.96875 " clip-rule="nonzero"/></clipPath><clipPath id="34ca14096c"><path d="M 5.753906 0.96875 C 2.972656 0.96875 0.714844 3.226562 0.714844 6.007812 C 0.714844 8.789062 2.972656 11.046875 5.753906 11.046875 C 8.535156 11.046875 10.792969 8.789062 10.792969 6.007812 C 10.792969 3.226562 8.535156 0.96875 5.753906 0.96875 Z M 5.753906 0.96875 " clip-rule="nonzero"/></clipPath><clipPath id="e371e6faf8"><rect x="0" width="11" y="0" height="12"/></clipPath><clipPath id="6089affb4f"><rect x="0" width="177" y="0" height="61"/></clipPath></defs><path fill="#0b0b0b" d="M 353.558594 158.195312 C 343.230469 113.945312 314.304688 52.960938 256.882812 64.535156 C 241.363281 67.269531 226.601562 71.34375 211.460938 74.820312 C 179.046875 83.570312 154.84375 70.53125 124.761719 65.597656 C 39.273438 46.925781 16.164062 162.15625 12.71875 231.46875 C 10.566406 277.839844 34.160156 316.234375 84.050781 289.375 C 99.195312 280.863281 113.039062 270.597656 125.578125 258.570312 C 129.613281 254.570312 134.082031 251.125 138.976562 248.238281 C 143.871094 245.351562 149.046875 243.105469 154.5 241.507812 C 187.40625 233.226562 225.90625 234.230469 252.867188 259.886719 C 267.546875 273.375 285.113281 288.433594 307.886719 295.648438 C 380.863281 314.261719 366.429688 207.175781 353.558594 158.195312 Z M 153.621094 166.101562 C 153.621094 167.007812 153.53125 167.902344 153.355469 168.792969 C 153.179688 169.679688 152.917969 170.542969 152.570312 171.382812 C 152.222656 172.21875 151.796875 173.015625 151.296875 173.769531 C 150.792969 174.519531 150.21875 175.21875 149.578125 175.859375 C 148.9375 176.5 148.242188 177.070312 147.488281 177.574219 C 146.734375 178.078125 145.9375 178.503906 145.101562 178.851562 C 144.265625 179.199219 143.402344 179.460938 142.511719 179.636719 C 141.621094 179.8125 140.726562 179.902344 139.820312 179.902344 L 131.035156 179.902344 L 131.035156 188.683594 C 131.035156 189.589844 130.949219 190.488281 130.769531 191.378906 C 130.59375 192.265625 130.332031 193.128906 129.984375 193.964844 C 129.640625 194.804688 129.214844 195.597656 128.710938 196.351562 C 128.207031 197.105469 127.632812 197.804688 126.992188 198.445312 C 126.351562 199.085938 125.65625 199.65625 124.902344 200.160156 C 124.148438 200.664062 123.355469 201.089844 122.515625 201.4375 C 121.679688 201.78125 120.816406 202.042969 119.925781 202.222656 C 119.039062 202.398438 118.140625 202.484375 117.234375 202.484375 L 102.179688 202.484375 C 101.273438 202.484375 100.375 202.394531 99.488281 202.214844 C 98.601562 202.035156 97.738281 201.773438 96.902344 201.425781 C 96.066406 201.078125 95.273438 200.652344 94.519531 200.148438 C 93.765625 199.644531 93.070312 199.074219 92.429688 198.433594 C 91.789062 197.792969 91.21875 197.09375 90.714844 196.34375 C 90.210938 195.589844 89.785156 194.796875 89.4375 193.960938 C 89.089844 193.125 88.828125 192.261719 88.648438 191.375 C 88.46875 190.488281 88.378906 189.589844 88.375 188.683594 L 88.375 179.902344 L 79.59375 179.902344 C 78.6875 179.898438 77.792969 179.808594 76.902344 179.628906 C 76.015625 179.449219 75.15625 179.1875 74.316406 178.839844 C 73.480469 178.492188 72.6875 178.066406 71.933594 177.5625 C 71.183594 177.058594 70.488281 176.488281 69.847656 175.847656 C 69.207031 175.207031 68.632812 174.511719 68.128906 173.757812 C 67.625 173.003906 67.199219 172.210938 66.851562 171.375 C 66.503906 170.539062 66.242188 169.675781 66.0625 168.789062 C 65.886719 167.902344 65.792969 167.003906 65.792969 166.101562 L 65.792969 151.042969 C 65.792969 150.136719 65.878906 149.238281 66.058594 148.351562 C 66.234375 147.460938 66.496094 146.597656 66.84375 145.761719 C 67.1875 144.925781 67.613281 144.128906 68.117188 143.375 C 68.621094 142.621094 69.195312 141.925781 69.835938 141.285156 C 70.476562 140.644531 71.171875 140.070312 71.925781 139.566406 C 72.679688 139.0625 73.476562 138.640625 74.3125 138.292969 C 75.148438 137.945312 76.011719 137.683594 76.902344 137.507812 C 77.789062 137.332031 78.6875 137.242188 79.59375 137.242188 L 88.375 137.242188 L 88.375 128.457031 C 88.375 127.550781 88.464844 126.65625 88.640625 125.765625 C 88.820312 124.878906 89.082031 124.015625 89.425781 123.175781 C 89.773438 122.339844 90.199219 121.542969 90.703125 120.792969 C 91.207031 120.039062 91.777344 119.339844 92.417969 118.699219 C 93.058594 118.058594 93.757812 117.488281 94.511719 116.984375 C 95.265625 116.480469 96.058594 116.054688 96.898438 115.707031 C 97.734375 115.359375 98.597656 115.097656 99.484375 114.921875 C 100.375 114.746094 101.273438 114.65625 102.179688 114.65625 L 117.234375 114.65625 C 118.140625 114.65625 119.039062 114.742188 119.929688 114.914062 C 120.820312 115.089844 121.683594 115.351562 122.523438 115.695312 C 123.359375 116.042969 124.15625 116.46875 124.910156 116.972656 C 125.667969 117.472656 126.363281 118.046875 127.003906 118.6875 C 127.648438 119.328125 128.21875 120.027344 128.722656 120.78125 C 129.226562 121.535156 129.652344 122.332031 129.996094 123.171875 C 130.34375 124.007812 130.601562 124.875 130.777344 125.761719 C 130.953125 126.652344 131.039062 127.550781 131.035156 128.457031 L 131.035156 137.242188 L 139.820312 137.242188 C 140.726562 137.238281 141.625 137.324219 142.515625 137.5 C 143.40625 137.675781 144.269531 137.9375 145.105469 138.28125 C 145.945312 138.628906 146.742188 139.050781 147.496094 139.554688 C 148.25 140.058594 148.949219 140.632812 149.589844 141.273438 C 150.230469 141.914062 150.804688 142.613281 151.308594 143.367188 C 151.8125 144.121094 152.234375 144.917969 152.582031 145.753906 C 152.925781 146.59375 153.1875 147.457031 153.363281 148.347656 C 153.539062 149.238281 153.625 150.136719 153.621094 151.042969 Z M 247.222656 107.316406 C 247.960938 106.609375 248.75 105.957031 249.585938 105.359375 C 250.421875 104.765625 251.296875 104.238281 252.210938 103.769531 C 253.125 103.304688 254.066406 102.90625 255.039062 102.578125 C 256.011719 102.246094 257 101.992188 258.007812 101.808594 C 259.019531 101.621094 260.035156 101.511719 261.0625 101.476562 C 262.085938 101.441406 263.109375 101.480469 264.128906 101.59375 C 265.148438 101.707031 266.152344 101.894531 267.144531 102.15625 C 268.136719 102.417969 269.105469 102.746094 270.046875 103.148438 C 270.992188 103.550781 271.902344 104.019531 272.777344 104.554688 C 273.652344 105.089844 274.484375 105.6875 275.273438 106.34375 C 276.058594 107 276.796875 107.710938 277.480469 108.472656 C 278.164062 109.238281 278.789062 110.046875 279.355469 110.902344 C 279.921875 111.757812 280.421875 112.648438 280.859375 113.578125 C 281.296875 114.507812 281.660156 115.460938 281.957031 116.445312 C 282.253906 117.425781 282.476562 118.425781 282.628906 119.4375 C 282.777344 120.453125 282.855469 121.472656 282.855469 122.5 C 282.839844 123.183594 282.792969 123.863281 282.710938 124.542969 C 282.628906 125.222656 282.515625 125.898438 282.371094 126.566406 C 282.226562 127.234375 282.046875 127.894531 281.839844 128.542969 C 281.628906 129.195312 281.390625 129.835938 281.121094 130.464844 C 280.851562 131.089844 280.550781 131.703125 280.222656 132.304688 C 279.890625 132.902344 279.535156 133.484375 279.148438 134.050781 C 278.765625 134.617188 278.351562 135.160156 277.914062 135.6875 C 277.480469 136.214844 277.015625 136.71875 276.53125 137.199219 C 276.046875 137.679688 275.539062 138.136719 275.007812 138.570312 C 274.480469 139.003906 273.929688 139.410156 273.359375 139.789062 C 272.792969 140.167969 272.207031 140.519531 271.605469 140.84375 C 271.003906 141.167969 270.386719 141.460938 269.753906 141.726562 C 269.125 141.992188 268.480469 142.226562 267.828125 142.429688 C 267.175781 142.632812 266.515625 142.800781 265.84375 142.941406 C 265.175781 143.082031 264.5 143.1875 263.820312 143.261719 C 263.140625 143.339844 262.460938 143.378906 261.777344 143.390625 C 260.742188 143.375 259.71875 143.28125 258.699219 143.113281 C 257.679688 142.949219 256.679688 142.707031 255.695312 142.394531 C 254.714844 142.082031 253.757812 141.695312 252.832031 141.242188 C 251.902344 140.789062 251.015625 140.269531 250.164062 139.6875 C 249.3125 139.101562 248.507812 138.457031 247.753906 137.757812 C 246.996094 137.054688 246.292969 136.300781 245.648438 135.496094 C 245.003906 134.691406 244.417969 133.84375 243.898438 132.953125 C 243.375 132.0625 242.921875 131.136719 242.535156 130.179688 C 242.148438 129.222656 241.835938 128.242188 241.59375 127.238281 C 241.351562 126.238281 241.183594 125.222656 241.089844 124.191406 C 240.996094 123.164062 240.976562 122.136719 241.035156 121.105469 C 241.09375 120.074219 241.222656 119.054688 241.429688 118.042969 C 241.640625 117.03125 241.917969 116.039062 242.269531 115.070312 C 242.625 114.101562 243.046875 113.160156 243.535156 112.253906 C 244.027344 111.34375 244.582031 110.476562 245.199219 109.648438 C 245.816406 108.824219 246.488281 108.046875 247.222656 107.316406 Z M 225.578125 179.335938 C 197.804688 178.945312 198.140625 137.808594 225.953125 137.554688 C 226.632812 137.570312 227.308594 137.621094 227.980469 137.699219 C 228.65625 137.78125 229.324219 137.894531 229.984375 138.042969 C 230.648438 138.1875 231.300781 138.367188 231.945312 138.578125 C 232.59375 138.785156 233.226562 139.027344 233.847656 139.296875 C 234.46875 139.570312 235.074219 139.871094 235.667969 140.203125 C 236.257812 140.53125 236.835938 140.890625 237.390625 141.277344 C 237.949219 141.664062 238.484375 142.078125 239.003906 142.515625 C 239.519531 142.957031 240.015625 143.417969 240.484375 143.90625 C 240.957031 144.394531 241.40625 144.902344 241.828125 145.433594 C 242.25 145.964844 242.644531 146.515625 243.015625 147.082031 C 243.382812 147.652344 243.722656 148.238281 244.035156 148.839844 C 244.347656 149.441406 244.628906 150.058594 244.878906 150.6875 C 245.132812 151.320312 245.351562 151.960938 245.542969 152.609375 C 245.730469 153.261719 245.890625 153.921875 246.015625 154.585938 C 246.140625 155.253906 246.230469 155.925781 246.292969 156.601562 C 246.351562 157.277344 246.378906 157.953125 246.371094 158.632812 C 246.367188 159.308594 246.328125 159.988281 246.253906 160.660156 C 246.183594 161.335938 246.078125 162.003906 245.941406 162.667969 C 245.804688 163.332031 245.632812 163.988281 245.433594 164.636719 C 245.234375 165.285156 245 165.921875 244.738281 166.546875 C 244.472656 167.171875 244.179688 167.78125 243.859375 168.378906 C 243.535156 168.976562 243.1875 169.554688 242.808594 170.117188 C 242.425781 170.679688 242.023438 171.222656 241.589844 171.746094 C 241.160156 172.269531 240.703125 172.769531 240.222656 173.25 C 239.742188 173.726562 239.238281 174.183594 238.714844 174.613281 C 238.1875 175.042969 237.644531 175.445312 237.078125 175.820312 C 236.515625 176.199219 235.933594 176.546875 235.335938 176.867188 C 234.738281 177.1875 234.125 177.476562 233.5 177.738281 C 232.875 177.996094 232.234375 178.226562 231.585938 178.425781 C 230.9375 178.621094 230.28125 178.789062 229.617188 178.921875 C 228.953125 179.058594 228.28125 179.160156 227.609375 179.230469 C 226.933594 179.296875 226.257812 179.332031 225.578125 179.335938 Z M 282.855469 195.144531 C 282.835938 195.832031 282.78125 196.511719 282.691406 197.191406 C 282.605469 197.871094 282.484375 198.542969 282.332031 199.210938 C 282.175781 199.875 281.992188 200.535156 281.773438 201.183594 C 281.558594 201.832031 281.308594 202.46875 281.03125 203.09375 C 280.75 203.71875 280.441406 204.328125 280.101562 204.921875 C 279.761719 205.519531 279.394531 206.09375 279 206.652344 C 278.605469 207.210938 278.183594 207.75 277.734375 208.269531 C 277.289062 208.785156 276.816406 209.28125 276.320312 209.753906 C 275.824219 210.222656 275.304688 210.671875 274.765625 211.09375 C 274.226562 211.511719 273.667969 211.90625 273.089844 212.273438 C 272.511719 212.640625 271.917969 212.976562 271.308594 213.285156 C 270.695312 213.59375 270.070312 213.875 269.433594 214.121094 C 268.796875 214.371094 268.148438 214.585938 267.488281 214.769531 C 266.828125 214.953125 266.164062 215.105469 265.488281 215.226562 C 264.816406 215.34375 264.136719 215.433594 263.453125 215.484375 C 262.773438 215.539062 262.089844 215.558594 261.402344 215.546875 C 260.71875 215.53125 260.039062 215.484375 259.359375 215.40625 C 258.679688 215.328125 258.003906 215.214844 257.335938 215.066406 C 256.667969 214.921875 256.007812 214.746094 255.355469 214.535156 C 254.703125 214.324219 254.0625 214.082031 253.4375 213.8125 C 252.808594 213.539062 252.195312 213.238281 251.597656 212.90625 C 250.996094 212.574219 250.417969 212.210938 249.851562 211.824219 C 249.289062 211.433594 248.746094 211.019531 248.222656 210.578125 C 247.703125 210.136719 247.203125 209.667969 246.722656 209.179688 C 246.246094 208.6875 245.792969 208.175781 245.367188 207.640625 C 244.941406 207.105469 244.539062 206.550781 244.164062 205.976562 C 243.792969 205.40625 243.449219 204.8125 243.132812 204.207031 C 242.816406 203.601562 242.53125 202.976562 242.277344 202.34375 C 242.019531 201.707031 241.796875 201.0625 241.605469 200.40625 C 241.414062 199.75 241.253906 199.082031 241.125 198.410156 C 241 197.738281 240.90625 197.0625 240.84375 196.378906 C 240.78125 195.699219 240.753906 195.015625 240.761719 194.332031 C 242.144531 166.847656 282.636719 167.609375 282.855469 195.144531 Z M 318.929688 158.824219 C 317.980469 186.40625 277.132812 185.621094 277.019531 158.195312 C 278.398438 130.777344 318.664062 131.054688 318.929688 158.824219 Z M 318.929688 158.824219 " fill-opacity="1" fill-rule="nonzero"/><path fill="#0b0b0b" d="M 261.964844 186.425781 C 261.414062 186.417969 260.871094 186.464844 260.328125 186.566406 C 259.789062 186.667969 259.261719 186.816406 258.75 187.023438 C 258.242188 187.226562 257.753906 187.476562 257.292969 187.773438 C 256.832031 188.074219 256.402344 188.414062 256.007812 188.796875 C 255.613281 189.179688 255.261719 189.597656 254.945312 190.050781 C 254.632812 190.5 254.367188 190.980469 254.148438 191.484375 C 253.929688 191.988281 253.761719 192.507812 253.644531 193.046875 C 253.527344 193.582031 253.464844 194.128906 253.453125 194.675781 C 253.445312 195.226562 253.488281 195.773438 253.585938 196.3125 C 253.679688 196.855469 253.828125 197.382812 254.03125 197.894531 C 254.230469 198.40625 254.476562 198.894531 254.773438 199.355469 C 255.070312 199.820312 255.40625 200.25 255.789062 200.648438 C 256.167969 201.046875 256.582031 201.402344 257.03125 201.71875 C 257.484375 202.03125 257.960938 202.300781 258.460938 202.523438 C 258.964844 202.746094 259.484375 202.917969 260.023438 203.039062 C 260.558594 203.160156 261.101562 203.226562 261.652344 203.238281 C 262.199219 203.246094 262.746094 203.199219 263.285156 203.097656 C 263.828125 203 264.351562 202.847656 264.863281 202.644531 C 265.375 202.441406 265.859375 202.1875 266.324219 201.890625 C 266.785156 201.589844 267.210938 201.25 267.605469 200.867188 C 268.003906 200.484375 268.355469 200.066406 268.667969 199.617188 C 268.980469 199.164062 269.246094 198.683594 269.464844 198.179688 C 269.6875 197.675781 269.855469 197.15625 269.96875 196.617188 C 270.085938 196.082031 270.152344 195.539062 270.160156 194.988281 C 270.171875 194.4375 270.128906 193.894531 270.03125 193.351562 C 269.933594 192.808594 269.785156 192.285156 269.585938 191.773438 C 269.386719 191.257812 269.136719 190.773438 268.84375 190.308594 C 268.546875 189.84375 268.207031 189.414062 267.828125 189.015625 C 267.449219 188.621094 267.03125 188.261719 266.582031 187.949219 C 266.132812 187.632812 265.65625 187.363281 265.152344 187.140625 C 264.648438 186.917969 264.128906 186.746094 263.59375 186.628906 C 263.058594 186.507812 262.515625 186.441406 261.964844 186.425781 Z M 261.964844 186.425781 " fill-opacity="1" fill-rule="nonzero"/><path fill="#0b0b0b" d="M 298.101562 150.101562 C 297.554688 150.097656 297.011719 150.144531 296.472656 150.242188 C 295.9375 150.34375 295.414062 150.496094 294.90625 150.699219 C 294.398438 150.902344 293.917969 151.152344 293.457031 151.449219 C 293 151.75 292.574219 152.089844 292.183594 152.46875 C 291.792969 152.851562 291.441406 153.265625 291.132812 153.71875 C 290.824219 154.167969 290.558594 154.644531 290.34375 155.144531 C 290.125 155.648438 289.960938 156.164062 289.847656 156.699219 C 289.734375 157.234375 289.671875 157.773438 289.664062 158.320312 C 289.65625 158.867188 289.699219 159.410156 289.796875 159.949219 C 289.898438 160.484375 290.046875 161.007812 290.246094 161.515625 C 290.449219 162.023438 290.695312 162.507812 290.992188 162.96875 C 291.289062 163.425781 291.628906 163.851562 292.007812 164.246094 C 292.386719 164.640625 292.800781 164.992188 293.25 165.304688 C 293.699219 165.613281 294.175781 165.878906 294.675781 166.097656 C 295.175781 166.316406 295.695312 166.484375 296.230469 166.601562 C 296.761719 166.714844 297.304688 166.78125 297.847656 166.789062 C 298.394531 166.796875 298.9375 166.75 299.476562 166.648438 C 300.011719 166.546875 300.535156 166.394531 301.042969 166.191406 C 301.550781 165.992188 302.03125 165.738281 302.492188 165.441406 C 302.949219 165.144531 303.375 164.804688 303.765625 164.421875 C 304.15625 164.042969 304.507812 163.625 304.816406 163.175781 C 305.125 162.726562 305.390625 162.25 305.605469 161.746094 C 305.824219 161.246094 305.988281 160.726562 306.101562 160.191406 C 306.214844 159.65625 306.277344 159.117188 306.285156 158.570312 C 306.292969 158.023438 306.25 157.480469 306.152344 156.945312 C 306.050781 156.40625 305.902344 155.882812 305.703125 155.375 C 305.5 154.867188 305.253906 154.382812 304.957031 153.925781 C 304.660156 153.464844 304.320312 153.039062 303.941406 152.644531 C 303.5625 152.253906 303.148438 151.902344 302.699219 151.589844 C 302.25 151.277344 301.773438 151.011719 301.273438 150.792969 C 300.773438 150.578125 300.253906 150.410156 299.71875 150.292969 C 299.1875 150.175781 298.644531 150.113281 298.101562 150.101562 Z M 298.101562 150.101562 " fill-opacity="1" fill-rule="nonzero"/><path fill="#0b0b0b" d="M 261.714844 130.84375 L 261.777344 130.84375 C 262.148438 130.839844 262.519531 130.816406 262.886719 130.765625 C 263.257812 130.714844 263.621094 130.640625 263.980469 130.542969 C 264.339844 130.445312 264.691406 130.328125 265.035156 130.183594 C 265.378906 130.039062 265.710938 129.875 266.035156 129.6875 C 266.355469 129.5 266.664062 129.292969 266.960938 129.0625 C 267.253906 128.835938 267.53125 128.589844 267.796875 128.328125 C 268.058594 128.0625 268.300781 127.78125 268.527344 127.488281 C 268.753906 127.191406 268.960938 126.882812 269.144531 126.558594 C 269.332031 126.234375 269.496094 125.902344 269.636719 125.558594 C 269.777344 125.210938 269.894531 124.859375 269.992188 124.5 C 270.085938 124.140625 270.160156 123.777344 270.207031 123.40625 C 270.253906 123.039062 270.277344 122.667969 270.277344 122.292969 C 270.277344 121.921875 270.253906 121.550781 270.203125 121.179688 C 270.152344 120.8125 270.082031 120.449219 269.984375 120.089844 C 269.886719 119.730469 269.765625 119.375 269.625 119.03125 C 269.480469 118.6875 269.316406 118.355469 269.128906 118.035156 C 268.941406 117.710938 268.734375 117.402344 268.507812 117.109375 C 268.28125 116.8125 268.035156 116.53125 267.773438 116.269531 C 267.507812 116.007812 267.230469 115.761719 266.933594 115.535156 C 266.640625 115.308594 266.328125 115.101562 266.007812 114.917969 C 265.683594 114.730469 265.351562 114.566406 265.007812 114.425781 C 264.664062 114.28125 264.3125 114.164062 263.949219 114.066406 C 263.589844 113.96875 263.226562 113.898438 262.855469 113.847656 C 262.488281 113.800781 262.117188 113.777344 261.746094 113.777344 C 261.371094 113.777344 261 113.800781 260.632812 113.847656 C 260.261719 113.898438 259.898438 113.96875 259.539062 114.066406 C 259.179688 114.164062 258.828125 114.28125 258.484375 114.425781 C 258.136719 114.566406 257.804688 114.730469 257.484375 114.917969 C 257.160156 115.101562 256.851562 115.308594 256.554688 115.535156 C 256.257812 115.761719 255.980469 116.007812 255.714844 116.269531 C 255.453125 116.53125 255.207031 116.8125 254.980469 117.109375 C 254.753906 117.402344 254.546875 117.710938 254.359375 118.035156 C 254.171875 118.355469 254.007812 118.6875 253.867188 119.03125 C 253.722656 119.378906 253.601562 119.730469 253.503906 120.089844 C 253.410156 120.449219 253.335938 120.8125 253.285156 121.179688 C 253.238281 121.550781 253.210938 121.921875 253.210938 122.292969 C 253.210938 122.667969 253.234375 123.039062 253.28125 123.40625 C 253.332031 123.777344 253.402344 124.140625 253.496094 124.5 C 253.59375 124.859375 253.710938 125.210938 253.851562 125.558594 C 253.996094 125.902344 254.160156 126.234375 254.34375 126.558594 C 254.53125 126.882812 254.734375 127.191406 254.960938 127.488281 C 255.1875 127.78125 255.429688 128.0625 255.695312 128.328125 C 255.957031 128.589844 256.234375 128.835938 256.53125 129.0625 C 256.824219 129.292969 257.132812 129.5 257.457031 129.6875 C 257.777344 129.875 258.109375 130.039062 258.453125 130.183594 C 258.796875 130.328125 259.148438 130.445312 259.507812 130.542969 C 259.867188 130.640625 260.230469 130.714844 260.601562 130.765625 C 260.96875 130.816406 261.339844 130.839844 261.714844 130.84375 Z M 261.714844 130.84375 " fill-opacity="1" fill-rule="nonzero"/><path fill="#0b0b0b" d="M 225.765625 150.101562 C 225.226562 150.101562 224.6875 150.152344 224.15625 150.253906 C 223.625 150.355469 223.109375 150.511719 222.609375 150.714844 C 222.105469 150.917969 221.628906 151.167969 221.175781 151.460938 C 220.722656 151.757812 220.304688 152.09375 219.917969 152.472656 C 219.527344 152.851562 219.179688 153.261719 218.875 153.707031 C 218.566406 154.152344 218.304688 154.625 218.089844 155.121094 C 217.875 155.617188 217.707031 156.128906 217.589844 156.65625 C 217.476562 157.1875 217.410156 157.722656 217.398438 158.261719 C 217.386719 158.804688 217.425781 159.339844 217.519531 159.875 C 217.609375 160.40625 217.753906 160.925781 217.945312 161.429688 C 218.140625 161.9375 218.378906 162.417969 218.667969 162.878906 C 218.953125 163.335938 219.28125 163.761719 219.652344 164.15625 C 220.023438 164.550781 220.425781 164.910156 220.867188 165.222656 C 221.304688 165.539062 221.769531 165.8125 222.261719 166.039062 C 222.753906 166.261719 223.261719 166.4375 223.789062 166.566406 C 224.316406 166.691406 224.847656 166.765625 225.390625 166.789062 C 225.945312 166.8125 226.496094 166.78125 227.042969 166.695312 C 227.59375 166.609375 228.125 166.46875 228.648438 166.277344 C 229.167969 166.082031 229.664062 165.839844 230.136719 165.546875 C 230.609375 165.257812 231.046875 164.921875 231.453125 164.542969 C 231.855469 164.160156 232.21875 163.746094 232.542969 163.292969 C 232.863281 162.839844 233.136719 162.363281 233.363281 161.855469 C 233.589844 161.347656 233.765625 160.824219 233.886719 160.28125 C 234.007812 159.742188 234.078125 159.191406 234.089844 158.636719 C 234.101562 158.082031 234.058594 157.53125 233.960938 156.984375 C 233.863281 156.441406 233.714844 155.90625 233.511719 155.390625 C 233.308594 154.875 233.054688 154.382812 232.753906 153.917969 C 232.453125 153.453125 232.109375 153.019531 231.71875 152.621094 C 231.332031 152.226562 230.910156 151.871094 230.453125 151.558594 C 229.992188 151.242188 229.507812 150.980469 228.996094 150.761719 C 228.484375 150.546875 227.957031 150.382812 227.414062 150.269531 C 226.871094 150.160156 226.320312 150.105469 225.765625 150.101562 Z M 225.765625 150.101562 " fill-opacity="1" fill-rule="nonzero"/><path fill="#0b0b0b" d="M 139.820312 149.789062 L 124.761719 149.789062 C 124.351562 149.789062 123.945312 149.746094 123.539062 149.664062 C 123.136719 149.582031 122.746094 149.464844 122.363281 149.304688 C 121.984375 149.148438 121.625 148.953125 121.28125 148.726562 C 120.941406 148.496094 120.625 148.238281 120.332031 147.945312 C 120.042969 147.65625 119.78125 147.339844 119.550781 146.996094 C 119.324219 146.652344 119.128906 146.292969 118.972656 145.914062 C 118.8125 145.53125 118.695312 145.140625 118.613281 144.738281 C 118.53125 144.335938 118.492188 143.925781 118.488281 143.515625 L 118.488281 128.457031 C 118.488281 128.292969 118.457031 128.132812 118.394531 127.980469 C 118.328125 127.824219 118.238281 127.691406 118.121094 127.574219 C 118.003906 127.457031 117.867188 127.363281 117.714844 127.300781 C 117.5625 127.238281 117.402344 127.203125 117.234375 127.203125 L 102.179688 127.203125 C 102.011719 127.203125 101.851562 127.238281 101.699219 127.300781 C 101.546875 127.363281 101.410156 127.457031 101.292969 127.574219 C 101.175781 127.691406 101.082031 127.824219 101.019531 127.980469 C 100.957031 128.132812 100.925781 128.292969 100.921875 128.457031 L 100.921875 143.515625 C 100.921875 143.925781 100.882812 144.335938 100.800781 144.738281 C 100.71875 145.140625 100.597656 145.53125 100.441406 145.914062 C 100.28125 146.292969 100.089844 146.652344 99.859375 146.996094 C 99.632812 147.339844 99.371094 147.65625 99.082031 147.945312 C 98.789062 148.238281 98.472656 148.496094 98.132812 148.726562 C 97.789062 148.953125 97.429688 149.148438 97.046875 149.304688 C 96.667969 149.464844 96.277344 149.582031 95.871094 149.664062 C 95.46875 149.746094 95.0625 149.789062 94.648438 149.789062 L 79.59375 149.789062 C 79.425781 149.789062 79.265625 149.820312 79.113281 149.886719 C 78.960938 149.949219 78.824219 150.039062 78.707031 150.15625 C 78.589844 150.273438 78.5 150.410156 78.433594 150.5625 C 78.371094 150.71875 78.339844 150.878906 78.339844 151.042969 L 78.339844 166.101562 C 78.339844 166.265625 78.371094 166.425781 78.433594 166.578125 C 78.5 166.734375 78.589844 166.867188 78.707031 166.984375 C 78.824219 167.101562 78.960938 167.195312 79.113281 167.257812 C 79.269531 167.320312 79.425781 167.355469 79.59375 167.355469 L 94.648438 167.355469 C 95.0625 167.351562 95.472656 167.390625 95.875 167.472656 C 96.28125 167.550781 96.671875 167.667969 97.054688 167.828125 C 97.433594 167.984375 97.796875 168.175781 98.140625 168.40625 C 98.484375 168.632812 98.800781 168.894531 99.09375 169.1875 C 99.382812 169.476562 99.644531 169.792969 99.871094 170.136719 C 100.101562 170.480469 100.292969 170.84375 100.453125 171.222656 C 100.609375 171.605469 100.726562 172 100.804688 172.402344 C 100.886719 172.808594 100.925781 173.214844 100.921875 173.628906 L 100.921875 188.683594 C 100.925781 188.851562 100.957031 189.011719 101.019531 189.164062 C 101.082031 189.316406 101.175781 189.453125 101.292969 189.570312 C 101.410156 189.6875 101.546875 189.777344 101.699219 189.84375 C 101.851562 189.90625 102.011719 189.9375 102.179688 189.9375 L 117.234375 189.9375 C 117.402344 189.9375 117.5625 189.90625 117.714844 189.84375 C 117.867188 189.777344 118.003906 189.6875 118.121094 189.570312 C 118.238281 189.453125 118.328125 189.316406 118.394531 189.164062 C 118.457031 189.011719 118.488281 188.851562 118.488281 188.683594 L 118.488281 173.628906 C 118.488281 173.214844 118.527344 172.808594 118.605469 172.402344 C 118.6875 172 118.804688 171.605469 118.960938 171.222656 C 119.117188 170.84375 119.3125 170.480469 119.539062 170.136719 C 119.769531 169.792969 120.027344 169.476562 120.320312 169.1875 C 120.613281 168.894531 120.929688 168.632812 121.273438 168.40625 C 121.617188 168.175781 121.976562 167.984375 122.359375 167.828125 C 122.738281 167.667969 123.132812 167.550781 123.539062 167.472656 C 123.941406 167.390625 124.351562 167.351562 124.761719 167.355469 L 139.820312 167.355469 C 139.984375 167.355469 140.144531 167.320312 140.300781 167.257812 C 140.453125 167.195312 140.585938 167.105469 140.707031 166.984375 C 140.824219 166.867188 140.914062 166.734375 140.976562 166.578125 C 141.042969 166.425781 141.074219 166.265625 141.074219 166.101562 L 141.074219 151.042969 C 141.074219 150.878906 141.042969 150.71875 140.976562 150.5625 C 140.914062 150.410156 140.824219 150.273438 140.707031 150.15625 C 140.589844 150.039062 140.453125 149.949219 140.300781 149.886719 C 140.144531 149.820312 139.984375 149.789062 139.820312 149.789062 Z M 139.820312 149.789062 " fill-opacity="1" fill-rule="nonzero"/><g clip-path="url(#ff725e3cfc)"><g clip-path="url(#88a4b8d2bb)"><g transform="matrix(1, 0, 0, 1, 177, 78)"><g clip-path="url(#d11d8dc898)"><g clip-path="url(#86a5b42eb3)"><g clip-path="url(#d3a74dff59)"><path fill="#0b0b0b" d="M 0.742188 0.691406 L 150.179688 0.691406 L 150.179688 141.339844 L 0.742188 141.339844 Z M 0.742188 0.691406 " fill-opacity="1" fill-rule="nonzero"/></g></g></g></g></g></g><g clip-path="url(#5ff3116e76)"><g clip-path="url(#3a7f76a3e7)"><g transform="matrix(1, 0, 0, 1, 49, 78)"><g clip-path="url(#c264d02c69)"><g clip-path="url(#3840e9312e)"><g clip-path="url(#87168d8dbd)"><path fill="#0b0b0b" d="M 0.625 0.691406 L 141.269531 0.691406 L 141.269531 141.339844 L 0.625 141.339844 Z M 0.625 0.691406 " fill-opacity="1" fill-rule="nonzero"/></g></g></g></g></g></g><g transform="matrix(1, 0, 0, 1, 53, 0)"><g clip-path="url(#cae1d2cf6b)"><g fill="#0b0b0b" fill-opacity="1"><g transform="translate(0.439831, 310.356624)"><g><path d="M 98.707031 -249.011719 L 139.453125 -246.464844 L 135.609375 -188.847656 L 132.527344 -137.175781 C 131.5625 -120.042969 130.71875 -102.898438 129.992188 -85.75 C 129.269531 -68.601562 128.664062 -51.574219 128.183594 -34.667969 L 128.015625 -28.820312 L 81.554688 -29.785156 L 81.554688 -44.269531 L 87.453125 -44.269531 L 88.609375 -38.488281 C 87.492188 -38.265625 86.492188 -38.042969 85.617188 -37.824219 L 84.1875 -43.542969 L 86.824219 -38.269531 C 85.507812 -37.613281 84.148438 -37.285156 82.734375 -37.285156 C 83.179688 -37.285156 83.574219 -37.371094 83.921875 -37.542969 L 82.675781 -36.921875 L 81.285156 -36.921875 C 81.117188 -36.921875 80.980469 -36.917969 80.871094 -36.90625 L 80.898438 -36.917969 C 79.945312 -36.679688 78.984375 -36.558594 78.015625 -36.558594 L 72.574219 -36.558594 C 69.0625 -36.558594 65.195312 -36.957031 60.964844 -37.75 L 60.792969 -37.78125 L 60.621094 -37.824219 C 53.28125 -39.660156 46.335938 -42.542969 39.785156 -46.472656 L 39.636719 -46.558594 L 39.496094 -46.65625 C 33.75 -50.574219 28.410156 -55.390625 23.476562 -61.101562 L 23.238281 -61.378906 L 23.035156 -61.683594 C 22.160156 -62.992188 21.292969 -64.1875 20.433594 -65.261719 L 20.273438 -65.460938 L 18.679688 -67.851562 L 17.230469 -70.027344 C 16.542969 -71.054688 15.949219 -72.15625 15.445312 -73.335938 C 15.222656 -73.851562 14.972656 -74.320312 14.6875 -74.746094 L 14.3125 -75.3125 L 14.074219 -75.945312 C 13.324219 -77.949219 12.695312 -79.710938 12.1875 -81.234375 C 9.808594 -88.105469 8.617188 -95.378906 8.617188 -103.054688 C 8.617188 -110.535156 9.949219 -117.871094 12.613281 -125.0625 L 18.144531 -123.015625 L 12.472656 -124.632812 L 13.351562 -127.699219 L 14.683594 -130.367188 L 19.957031 -127.730469 L 14.363281 -129.597656 C 14.695312 -130.585938 15.101562 -131.570312 15.589844 -132.546875 L 16.859375 -135.085938 L 22.136719 -132.449219 L 16.542969 -134.3125 C 16.949219 -135.539062 17.542969 -136.734375 18.316406 -137.898438 L 19.769531 -140.074219 L 24.675781 -136.804688 L 19.402344 -139.441406 C 19.800781 -140.242188 20.472656 -141.265625 21.410156 -142.519531 L 21.5 -142.640625 L 23.410156 -144.933594 L 27.941406 -141.15625 L 23.296875 -144.792969 C 28.214844 -151.074219 34.59375 -156.109375 42.433594 -159.894531 C 49.3125 -163.335938 56.621094 -165.457031 64.347656 -166.253906 L 64.953125 -160.390625 L 64.203125 -166.238281 C 74.6875 -167.582031 85.015625 -166.113281 95.183594 -161.832031 L 92.894531 -156.398438 L 87.007812 -156.691406 C 87.734375 -171.238281 88.582031 -185.789062 89.550781 -200.335938 L 92.847656 -249.375 Z M 97.96875 -237.238281 L 98.339844 -243.125 L 104.222656 -242.730469 L 101.320312 -199.550781 C 100.355469 -185.066406 99.507812 -170.585938 98.785156 -156.105469 L 98.363281 -147.695312 L 90.605469 -150.964844 C 82.390625 -154.421875 74.089844 -155.617188 65.703125 -154.539062 L 65.5625 -154.523438 C 59.257812 -153.871094 53.257812 -152.121094 47.558594 -149.273438 C 41.367188 -146.285156 36.375 -142.367188 32.585938 -137.523438 L 32.527344 -137.453125 L 30.65625 -135.207031 L 26.125 -138.980469 L 30.84375 -135.441406 C 30.332031 -134.757812 30.03125 -134.332031 29.949219 -134.164062 L 29.785156 -133.835938 L 28.128906 -131.355469 C 27.9375 -131.066406 27.804688 -130.808594 27.730469 -130.582031 L 27.597656 -130.1875 L 26.140625 -127.269531 C 25.902344 -126.796875 25.707031 -126.328125 25.550781 -125.867188 L 25.417969 -125.46875 L 24.144531 -122.917969 L 18.871094 -125.554688 L 24.539062 -123.933594 L 23.75 -121.175781 L 23.671875 -120.964844 C 21.5 -115.09375 20.410156 -109.125 20.410156 -103.054688 C 20.410156 -96.703125 21.398438 -90.671875 23.375 -84.960938 C 23.835938 -83.578125 24.417969 -81.957031 25.117188 -80.089844 L 19.59375 -78.015625 L 24.5 -81.289062 C 25.1875 -80.261719 25.78125 -79.160156 26.285156 -77.980469 C 26.503906 -77.464844 26.757812 -76.996094 27.042969 -76.570312 L 28.492188 -74.394531 L 29.945312 -72.214844 L 25.039062 -68.945312 L 29.644531 -72.628906 C 30.71875 -71.285156 31.785156 -69.820312 32.847656 -68.226562 L 27.941406 -64.953125 L 32.402344 -68.808594 C 36.664062 -63.875 41.242188 -59.738281 46.140625 -56.398438 L 42.820312 -51.527344 L 45.851562 -56.585938 C 51.398438 -53.257812 57.273438 -50.816406 63.480469 -49.265625 L 62.050781 -43.542969 L 63.136719 -49.339844 C 66.648438 -48.683594 69.796875 -48.351562 72.574219 -48.351562 L 78.015625 -48.351562 L 78.039062 -48.359375 C 78.992188 -48.597656 80.074219 -48.714844 81.285156 -48.714844 L 81.285156 -42.820312 L 78.644531 -48.09375 C 79.960938 -48.75 81.324219 -49.078125 82.734375 -49.078125 C 82.289062 -49.078125 81.894531 -48.992188 81.550781 -48.820312 L 82.128906 -49.109375 L 82.757812 -49.265625 C 83.816406 -49.53125 84.996094 -49.792969 86.296875 -50.050781 L 93.347656 -51.464844 L 93.347656 -35.5625 L 87.453125 -35.5625 L 87.574219 -41.457031 L 122.410156 -40.730469 L 122.289062 -34.835938 L 116.394531 -35.003906 C 116.878906 -51.964844 117.484375 -69.046875 118.210938 -86.25 C 118.9375 -103.453125 119.785156 -120.664062 120.757812 -137.878906 L 123.84375 -189.628906 L 127.289062 -241.339844 L 133.175781 -240.949219 L 132.804688 -235.0625 Z M 83.386719 -91.894531 C 83.625 -94.964844 83.800781 -98.035156 83.917969 -101.105469 C 84.042969 -104.324219 84.226562 -107.546875 84.476562 -110.765625 L 90.355469 -110.3125 L 84.554688 -109.257812 C 84.214844 -111.117188 83.789062 -112.4375 83.273438 -113.210938 L 82.992188 -113.628906 L 82.789062 -114.085938 C 82.238281 -115.328125 81.402344 -116.371094 80.285156 -117.207031 C 76.988281 -119.636719 73.34375 -120.589844 69.34375 -120.070312 C 64.835938 -119.527344 61.511719 -117.941406 59.371094 -115.304688 L 54.792969 -119.023438 L 60.691406 -119.023438 C 60.691406 -117.152344 59.992188 -115.519531 58.601562 -114.125 L 57.875 -113.402344 L 53.707031 -117.570312 L 59.601562 -117.570312 C 59.601562 -115.699219 58.90625 -114.070312 57.511719 -112.675781 C 57.667969 -112.828125 57.789062 -112.976562 57.886719 -113.121094 L 57.890625 -113.121094 C 57.722656 -112.78125 57.609375 -112.539062 57.546875 -112.386719 C 57.707031 -112.789062 57.789062 -113.304688 57.789062 -113.941406 L 57.789062 -112.15625 L 56.070312 -109.582031 L 51.164062 -112.851562 L 56.757812 -110.988281 L 56.394531 -109.898438 C 55.628906 -107.601562 55.246094 -105.199219 55.246094 -102.691406 C 55.246094 -100.484375 55.613281 -98.371094 56.34375 -96.363281 L 56.699219 -95.386719 L 56.699219 -94.347656 C 56.699219 -94.863281 56.617188 -95.320312 56.457031 -95.71875 L 56.433594 -95.804688 L 57.425781 -94.316406 L 57.425781 -92.53125 C 57.425781 -93.675781 56.96875 -94.703125 56.058594 -95.613281 C 57.453125 -94.21875 58.152344 -92.589844 58.152344 -90.71875 L 52.253906 -90.71875 L 56.421875 -94.886719 L 57.148438 -94.160156 C 58.542969 -92.769531 59.238281 -91.015625 59.238281 -88.902344 L 53.34375 -88.902344 L 57.511719 -93.074219 C 58.269531 -92.3125 59 -91.410156 59.699219 -90.359375 L 54.792969 -87.089844 L 59.269531 -90.925781 C 62.765625 -86.847656 66.652344 -84.347656 70.925781 -83.417969 L 69.671875 -77.65625 L 70.640625 -83.472656 C 71.769531 -83.28125 72.65625 -83.1875 73.300781 -83.1875 L 76.566406 -83.1875 L 76.566406 -77.292969 L 74.496094 -82.8125 C 75.902344 -83.339844 77.347656 -84.160156 78.832031 -85.273438 C 80.324219 -86.433594 81.476562 -87.75 82.296875 -89.226562 L 82.34375 -89.3125 L 82.394531 -89.398438 C 82.855469 -90.164062 83.132812 -90.71875 83.234375 -91.066406 C 83.300781 -91.304688 83.347656 -91.496094 83.375 -91.636719 C 83.371094 -91.621094 83.371094 -91.554688 83.371094 -91.445312 L 83.371094 -91.671875 Z M 95.144531 -90.992188 L 89.265625 -91.445312 L 95.164062 -91.445312 C 95.164062 -90.410156 94.96875 -89.203125 94.574219 -87.828125 C 94.1875 -86.484375 93.5 -84.984375 92.507812 -83.328125 L 87.453125 -86.363281 L 92.605469 -83.5 C 91.007812 -80.621094 88.777344 -78.066406 85.910156 -75.839844 C 83.523438 -74.050781 81.097656 -72.695312 78.636719 -71.769531 L 77.636719 -71.394531 L 73.300781 -71.394531 C 72.007812 -71.394531 70.472656 -71.542969 68.703125 -71.839844 L 68.558594 -71.863281 L 68.417969 -71.890625 C 61.566406 -73.382812 55.53125 -77.167969 50.316406 -83.25 L 50.085938 -83.523438 L 49.886719 -83.820312 C 49.621094 -84.21875 49.382812 -84.527344 49.171875 -84.734375 L 47.445312 -86.460938 L 47.445312 -88.902344 C 47.445312 -87.757812 47.898438 -86.730469 48.808594 -85.824219 L 46.355469 -88.277344 L 46.355469 -90.71875 C 46.355469 -89.332031 46.8125 -88.183594 47.722656 -87.273438 C 46.328125 -88.667969 45.632812 -90.421875 45.632812 -92.53125 L 51.527344 -92.53125 L 46.621094 -89.261719 C 45.476562 -90.976562 44.90625 -92.671875 44.90625 -94.347656 L 50.800781 -94.347656 L 45.261719 -92.332031 C 44.054688 -95.644531 43.453125 -99.097656 43.453125 -102.691406 C 43.453125 -106.476562 44.039062 -110.121094 45.207031 -113.628906 L 45.820312 -115.46875 L 46.984375 -117.210938 L 51.890625 -113.941406 L 45.992188 -113.941406 C 45.992188 -115.113281 46.445312 -116.597656 47.34375 -118.394531 C 47.871094 -119.449219 48.480469 -120.320312 49.171875 -121.015625 C 48.261719 -120.105469 47.808594 -118.957031 47.808594 -117.570312 L 47.808594 -120.011719 L 50.261719 -122.464844 C 49.351562 -121.554688 48.898438 -120.410156 48.898438 -119.023438 L 48.898438 -121.117188 L 50.21875 -122.742188 C 54.363281 -127.847656 60.234375 -130.855469 67.820312 -131.765625 C 74.953125 -132.695312 81.464844 -130.988281 87.363281 -126.640625 C 90.113281 -124.578125 92.183594 -121.988281 93.566406 -118.875 L 88.179688 -116.480469 L 93.085938 -119.753906 C 94.503906 -117.625 95.527344 -114.828125 96.15625 -111.367188 L 96.292969 -110.621094 L 96.234375 -109.859375 C 96 -106.792969 95.820312 -103.722656 95.703125 -100.652344 C 95.578125 -97.433594 95.394531 -94.210938 95.144531 -90.992188 Z M 95.144531 -90.992188 "/></g></g></g><g fill="#ffffff" fill-opacity="1"><g transform="translate(0.439831, 310.356624)"><g><path d="M 98.34375 -243.125 L 133.171875 -240.953125 C 131.960938 -223.773438 130.8125 -206.535156 129.71875 -189.234375 C 128.632812 -171.941406 127.609375 -154.707031 126.640625 -137.53125 C 125.671875 -120.351562 124.820312 -103.175781 124.09375 -86 C 123.375 -68.820312 122.769531 -51.769531 122.28125 -34.84375 L 87.453125 -35.5625 C 87.453125 -37.007812 87.453125 -38.457031 87.453125 -39.90625 C 87.453125 -41.363281 87.453125 -42.816406 87.453125 -44.265625 C 86.242188 -44.023438 85.15625 -43.785156 84.1875 -43.546875 C 83.707031 -43.304688 83.222656 -43.1875 82.734375 -43.1875 C 82.253906 -43.1875 81.769531 -43.0625 81.28125 -42.8125 C 80.5625 -42.8125 79.957031 -42.75 79.46875 -42.625 C 78.988281 -42.507812 78.503906 -42.453125 78.015625 -42.453125 C 77.285156 -42.453125 76.4375 -42.453125 75.46875 -42.453125 C 74.507812 -42.453125 73.546875 -42.453125 72.578125 -42.453125 C 69.429688 -42.453125 65.921875 -42.816406 62.046875 -43.546875 C 55.273438 -45.234375 48.863281 -47.894531 42.8125 -51.53125 C 37.5 -55.15625 32.539062 -59.628906 27.9375 -64.953125 C 26.96875 -66.398438 26 -67.734375 25.03125 -68.953125 C 24.550781 -69.671875 24.066406 -70.394531 23.578125 -71.125 C 23.097656 -71.851562 22.617188 -72.578125 22.140625 -73.296875 C 21.648438 -74.023438 21.222656 -74.8125 20.859375 -75.65625 C 20.503906 -76.5 20.082031 -77.285156 19.59375 -78.015625 C 18.863281 -79.953125 18.257812 -81.644531 17.78125 -83.09375 C 15.601562 -89.382812 14.515625 -96.039062 14.515625 -103.0625 C 14.515625 -109.832031 15.722656 -116.484375 18.140625 -123.015625 L 18.875 -125.5625 L 19.953125 -127.734375 C 20.203125 -128.460938 20.503906 -129.1875 20.859375 -129.90625 C 21.222656 -130.632812 21.648438 -131.484375 22.140625 -132.453125 C 22.378906 -133.171875 22.738281 -133.894531 23.21875 -134.625 C 23.707031 -135.351562 24.191406 -136.078125 24.671875 -136.796875 C 24.910156 -137.285156 25.394531 -138.015625 26.125 -138.984375 L 27.9375 -141.15625 C 32.289062 -146.71875 37.976562 -151.191406 45 -154.578125 C 51.289062 -157.722656 57.941406 -159.660156 64.953125 -160.390625 C 74.390625 -161.597656 83.703125 -160.269531 92.890625 -156.40625 C 93.617188 -170.914062 94.46875 -185.425781 95.4375 -199.9375 C 96.40625 -214.457031 97.375 -228.851562 98.34375 -243.125 Z M 89.265625 -91.4375 C 89.503906 -94.582031 89.6875 -97.726562 89.8125 -100.875 C 89.9375 -104.019531 90.117188 -107.164062 90.359375 -110.3125 C 89.867188 -112.976562 89.140625 -115.035156 88.171875 -116.484375 C 87.210938 -118.660156 85.765625 -120.472656 83.828125 -121.921875 C 79.222656 -125.304688 74.140625 -126.640625 68.578125 -125.921875 C 62.535156 -125.191406 57.941406 -122.890625 54.796875 -119.015625 C 54.796875 -118.773438 54.675781 -118.535156 54.4375 -118.296875 C 54.1875 -118.054688 53.941406 -117.816406 53.703125 -117.578125 C 53.703125 -117.328125 53.582031 -117.082031 53.34375 -116.84375 C 53.101562 -116.601562 52.859375 -116.238281 52.609375 -115.75 C 52.128906 -114.789062 51.890625 -114.1875 51.890625 -113.9375 L 51.171875 -112.859375 L 50.796875 -111.765625 C 49.828125 -108.859375 49.34375 -105.832031 49.34375 -102.6875 C 49.34375 -99.789062 49.828125 -97.007812 50.796875 -94.34375 C 50.796875 -93.863281 51.039062 -93.257812 51.53125 -92.53125 C 51.53125 -92.050781 51.648438 -91.6875 51.890625 -91.4375 C 52.128906 -91.195312 52.25 -90.957031 52.25 -90.71875 C 52.488281 -90.476562 52.726562 -90.234375 52.96875 -89.984375 C 53.21875 -89.742188 53.34375 -89.382812 53.34375 -88.90625 C 53.820312 -88.414062 54.304688 -87.8125 54.796875 -87.09375 C 59.148438 -82.007812 64.109375 -78.863281 69.671875 -77.65625 C 71.117188 -77.414062 72.328125 -77.296875 73.296875 -77.296875 C 73.535156 -77.296875 73.835938 -77.296875 74.203125 -77.296875 C 74.566406 -77.296875 74.867188 -77.296875 75.109375 -77.296875 C 75.109375 -77.296875 75.351562 -77.296875 75.84375 -77.296875 C 76.082031 -77.296875 76.203125 -77.296875 76.203125 -77.296875 C 76.203125 -77.296875 76.320312 -77.296875 76.5625 -77.296875 C 78.5 -78.015625 80.4375 -79.101562 82.375 -80.5625 C 84.550781 -82.25 86.242188 -84.179688 87.453125 -86.359375 C 88.179688 -87.566406 88.664062 -88.59375 88.90625 -89.4375 C 89.144531 -90.289062 89.265625 -90.957031 89.265625 -91.4375 Z M 89.265625 -91.4375 "/></g></g></g></g></g><g transform="matrix(1, 0, 0, 1, 176, 0)"><g clip-path="url(#453031bb32)"><g fill="#0b0b0b" fill-opacity="1"><g transform="translate(1.751412, 255.866352)"><g><path d="M 128.757812 -130.195312 C 131.152344 -123.269531 132.351562 -115.964844 132.351562 -108.277344 L 132.351562 -108.179688 L 132.347656 -108.082031 C 132.085938 -100.175781 130.628906 -92.65625 127.988281 -85.515625 C 126.609375 -81.929688 124.773438 -78.390625 122.488281 -74.890625 C 120.324219 -71.582031 118.214844 -68.644531 116.160156 -66.074219 L 116.003906 -65.878906 L 115.828125 -65.695312 C 110.882812 -60.488281 105.292969 -55.9375 99.054688 -52.039062 L 98.898438 -51.945312 C 95.730469 -50.097656 92.308594 -48.453125 88.636719 -47.007812 C 84.816406 -45.507812 80.984375 -44.484375 77.140625 -43.933594 L 76.304688 -49.777344 L 77.542969 -44.003906 C 73.621094 -43.164062 69.453125 -42.882812 65.035156 -43.160156 L 65.402344 -49.050781 L 65.402344 -43.148438 C 63.398438 -43.148438 61.09375 -43.355469 58.488281 -43.765625 C 55.949219 -44.164062 53.71875 -44.640625 51.789062 -45.191406 L 51.5 -45.273438 L 51.21875 -45.386719 C 50.117188 -45.828125 48.890625 -46.273438 47.546875 -46.722656 L 49.414062 -52.324219 L 55.320312 -52.324219 C 55.320312 -39.746094 55.382812 -27.046875 55.5 -14.226562 C 55.621094 -1.40625 55.804688 11.414062 56.046875 24.234375 L 56.160156 30.1875 L 9.417969 30.671875 L 8.8125 -26.460938 L 8.628906 -78.101562 C 8.628906 -95.355469 8.8125 -112.601562 9.175781 -129.839844 L 10.59375 -186.976562 L 57.136719 -186.003906 L 57.136719 -180.222656 C 57.136719 -177.46875 57.074219 -174.714844 56.949219 -171.960938 C 56.832031 -169.386719 56.773438 -166.808594 56.773438 -164.234375 L 50.871094 -164.234375 L 47.59375 -169.148438 C 49.0625 -170.128906 50.664062 -170.742188 52.394531 -170.988281 C 52.890625 -171.058594 53.335938 -171.160156 53.726562 -171.289062 L 53.847656 -171.332031 L 53.972656 -171.367188 C 61.542969 -173.527344 69.367188 -174.070312 77.449219 -172.996094 L 76.667969 -167.140625 L 77.253906 -173.015625 C 85.339844 -172.207031 92.765625 -169.910156 99.535156 -166.117188 L 96.652344 -160.964844 L 99.292969 -166.246094 C 106.894531 -162.445312 113.273438 -157.152344 118.429688 -150.367188 L 113.730469 -146.792969 L 118.265625 -150.574219 L 120.519531 -147.867188 L 120.828125 -147.253906 C 120.960938 -146.988281 121.078125 -146.777344 121.1875 -146.617188 L 121.175781 -146.609375 L 121.851562 -145.929688 L 122.28125 -145.074219 C 122.957031 -143.71875 123.753906 -142.242188 124.667969 -140.640625 C 126.386719 -137.492188 127.789062 -133.875 128.882812 -129.785156 L 123.175781 -128.261719 Z M 117.597656 -126.332031 L 117.527344 -126.535156 L 117.472656 -126.742188 C 116.625 -129.917969 115.605469 -132.597656 114.417969 -134.78125 C 113.394531 -136.570312 112.492188 -138.242188 111.71875 -139.792969 L 117 -142.433594 L 112.824219 -138.257812 C 112.304688 -138.777344 111.816406 -139.378906 111.359375 -140.066406 C 110.980469 -140.632812 110.617188 -141.269531 110.265625 -141.972656 L 115.546875 -144.613281 L 111.011719 -140.835938 L 109.109375 -143.117188 L 109.027344 -143.222656 C 104.980469 -148.546875 99.972656 -152.703125 94.011719 -155.683594 L 93.886719 -155.746094 L 93.765625 -155.8125 C 88.425781 -158.804688 82.53125 -160.621094 76.078125 -161.265625 L 75.984375 -161.277344 L 75.886719 -161.289062 C 69.433594 -162.148438 63.207031 -161.722656 57.214844 -160.011719 L 55.59375 -165.6875 L 57.460938 -160.085938 C 56.398438 -159.734375 55.265625 -159.46875 54.066406 -159.296875 C 54.101562 -159.304688 54.128906 -159.3125 54.144531 -159.320312 L 44.964844 -153.203125 L 44.964844 -164.234375 C 44.964844 -166.988281 45.027344 -169.742188 45.152344 -172.496094 C 45.269531 -175.070312 45.328125 -177.648438 45.328125 -180.222656 L 51.234375 -180.222656 L 51.109375 -174.320312 L 16.226562 -175.046875 L 16.351562 -180.949219 L 22.253906 -180.804688 L 20.980469 -129.59375 C 20.621094 -112.433594 20.4375 -95.285156 20.4375 -78.140625 L 20.621094 -26.585938 L 21.164062 24.644531 L 15.261719 24.707031 L 15.199219 18.804688 L 50.082031 18.441406 L 50.144531 24.34375 L 44.238281 24.457031 C 43.996094 11.597656 43.816406 -1.257812 43.691406 -14.113281 C 43.570312 -26.972656 43.511719 -39.707031 43.511719 -52.324219 L 43.511719 -60.515625 L 51.28125 -57.925781 C 52.847656 -57.402344 54.289062 -56.878906 55.605469 -56.351562 L 53.414062 -50.871094 L 55.035156 -56.546875 C 56.5 -56.128906 58.265625 -55.753906 60.328125 -55.429688 C 62.324219 -55.113281 64.015625 -54.957031 65.402344 -54.957031 L 65.585938 -54.957031 L 65.773438 -54.945312 C 69.105469 -54.738281 72.207031 -54.941406 75.066406 -55.554688 L 75.265625 -55.59375 L 75.46875 -55.625 C 78.40625 -56.042969 81.355469 -56.835938 84.320312 -58 C 87.429688 -59.222656 90.304688 -60.605469 92.949219 -62.148438 L 95.925781 -57.046875 L 92.796875 -62.054688 C 98.1875 -65.421875 103.011719 -69.347656 107.269531 -73.832031 L 111.550781 -69.761719 L 106.9375 -73.453125 C 108.757812 -75.726562 110.648438 -78.359375 112.601562 -81.351562 C 114.433594 -84.152344 115.867188 -86.90625 116.914062 -89.617188 C 119.113281 -95.5625 120.324219 -101.847656 120.546875 -108.476562 L 126.445312 -108.277344 L 120.542969 -108.277344 C 120.542969 -114.640625 119.558594 -120.660156 117.597656 -126.332031 Z M 84.199219 -102.304688 C 84.929688 -104.316406 85.296875 -106.429688 85.296875 -108.640625 L 85.296875 -108.867188 L 85.3125 -109.09375 C 85.496094 -111.453125 85.226562 -113.707031 84.507812 -115.859375 L 90.109375 -117.726562 L 84.683594 -115.398438 C 83.9375 -117.140625 83.316406 -118.636719 82.8125 -119.894531 L 88.292969 -122.085938 L 83.382812 -118.8125 C 82.761719 -119.742188 82.273438 -120.558594 81.921875 -121.261719 L 81.300781 -122.507812 L 81.300781 -123.902344 C 81.300781 -122.515625 81.816406 -121.304688 82.847656 -120.273438 C 83.878906 -119.242188 85.089844 -118.726562 86.476562 -118.726562 L 80.574219 -118.726562 L 80.574219 -124.628906 C 80.574219 -123.242188 81.027344 -122.09375 81.9375 -121.179688 L 81.582031 -121.539062 L 81.289062 -121.953125 C 79.394531 -124.640625 76.285156 -126.242188 71.96875 -126.761719 L 72.671875 -132.625 L 72.21875 -126.734375 C 69.800781 -126.921875 67.730469 -126.757812 66.011719 -126.242188 L 65.585938 -126.113281 L 65.148438 -126.050781 C 64.085938 -125.898438 63.355469 -125.722656 62.957031 -125.527344 L 60.316406 -130.808594 L 64.492188 -126.632812 C 63.664062 -125.804688 62.742188 -125.085938 61.71875 -124.472656 C 60.984375 -124.03125 60.304688 -123.65625 59.6875 -123.34375 L 57.046875 -128.625 L 60.589844 -123.902344 C 59.238281 -122.890625 58.152344 -121.726562 57.328125 -120.410156 L 52.324219 -123.539062 L 57.71875 -121.140625 C 56.964844 -119.441406 56.382812 -117.277344 55.980469 -114.648438 L 55.207031 -109.640625 L 49.777344 -109.640625 L 49.777344 -115.546875 L 55.683594 -115.546875 L 55.683594 -99.921875 C 55.683594 -100.140625 55.671875 -100.335938 55.648438 -100.507812 L 55.660156 -100.445312 C 55.703125 -100.234375 55.773438 -99.929688 55.871094 -99.539062 C 55.972656 -99.136719 56.234375 -98.582031 56.660156 -97.871094 C 57.800781 -95.96875 59.238281 -94.246094 60.96875 -92.707031 C 62.640625 -91.203125 64.0625 -90.320312 65.230469 -90.0625 L 66.910156 -89.6875 L 68.488281 -88.109375 L 64.3125 -83.933594 L 64.3125 -89.839844 L 66.492188 -89.839844 C 67.460938 -89.839844 68.195312 -89.902344 68.695312 -90.027344 L 69.136719 -90.136719 L 69.59375 -90.179688 C 71.304688 -90.332031 73.09375 -91.003906 74.949219 -92.1875 L 75.144531 -92.304688 C 77.511719 -93.683594 79.453125 -95.230469 80.972656 -96.941406 L 85.386719 -93.019531 L 80.777344 -96.707031 C 82.351562 -98.671875 83.511719 -100.597656 84.265625 -102.476562 L 89.746094 -100.285156 Z M 95.296875 -98.265625 L 95.265625 -98.179688 L 95.230469 -98.09375 C 94.042969 -95.128906 92.300781 -92.207031 90 -89.328125 L 89.902344 -89.210938 L 89.800781 -89.09375 C 87.445312 -86.445312 84.542969 -84.117188 81.097656 -82.105469 L 78.121094 -87.203125 L 81.289062 -82.222656 C 77.820312 -80.015625 74.277344 -78.746094 70.660156 -78.417969 L 70.125 -84.296875 L 71.558594 -78.570312 C 70.121094 -78.210938 68.429688 -78.03125 66.492188 -78.03125 L 61.867188 -78.03125 L 59.773438 -80.121094 L 63.949219 -84.296875 L 62.667969 -78.535156 C 59.480469 -79.242188 56.296875 -81.023438 53.125 -83.882812 C 50.492188 -86.21875 48.296875 -88.859375 46.53125 -91.796875 C 45.503906 -93.511719 44.796875 -95.136719 44.414062 -96.671875 C 44.054688 -98.113281 43.875 -99.195312 43.875 -99.921875 L 43.875 -121.449219 L 50.144531 -121.449219 L 50.144531 -115.546875 L 44.308594 -116.445312 C 44.871094 -120.113281 45.746094 -123.277344 46.925781 -125.9375 L 47.09375 -126.316406 L 47.316406 -126.667969 C 48.914062 -129.230469 50.976562 -131.457031 53.503906 -133.351562 L 53.929688 -133.667969 L 54.40625 -133.90625 C 54.753906 -134.082031 55.167969 -134.3125 55.644531 -134.597656 C 55.832031 -134.710938 56 -134.839844 56.140625 -134.980469 L 56.820312 -135.660156 L 57.675781 -136.089844 C 59.214844 -136.859375 61.148438 -137.410156 63.476562 -137.742188 L 64.3125 -131.898438 L 62.617188 -137.550781 C 65.742188 -138.488281 69.242188 -138.808594 73.125 -138.511719 L 73.25 -138.5 L 73.375 -138.484375 C 81.167969 -137.550781 87.023438 -134.308594 90.9375 -128.761719 L 86.113281 -125.355469 L 90.289062 -129.53125 C 91.683594 -128.136719 92.382812 -126.503906 92.382812 -124.628906 L 86.476562 -124.628906 L 86.476562 -130.535156 C 88.351562 -130.535156 89.925781 -129.898438 91.199219 -128.625 C 92.472656 -127.347656 93.109375 -125.777344 93.109375 -123.902344 L 87.203125 -123.902344 L 92.484375 -126.542969 C 92.617188 -126.277344 92.859375 -125.882812 93.207031 -125.363281 L 93.546875 -124.851562 L 93.777344 -124.277344 C 94.242188 -123.113281 94.832031 -121.703125 95.539062 -120.050781 L 95.636719 -119.828125 L 95.714844 -119.59375 C 96.933594 -115.933594 97.390625 -112.132812 97.089844 -108.1875 L 91.203125 -108.640625 L 97.105469 -108.640625 C 97.105469 -105.042969 96.503906 -101.582031 95.296875 -98.265625 Z M 95.296875 -98.265625 "/></g></g></g><g fill="#ffffff" fill-opacity="1"><g transform="translate(1.751412, 255.866352)"><g><path d="M 123.171875 -128.265625 C 125.359375 -121.960938 126.453125 -115.300781 126.453125 -108.28125 C 126.203125 -101.007812 124.867188 -94.101562 122.453125 -87.5625 C 121.242188 -84.414062 119.609375 -81.269531 117.546875 -78.125 C 115.484375 -74.976562 113.484375 -72.191406 111.546875 -69.765625 C 106.941406 -64.921875 101.734375 -60.679688 95.921875 -57.046875 C 93.015625 -55.347656 89.863281 -53.832031 86.46875 -52.5 C 83.082031 -51.164062 79.695312 -50.257812 76.3125 -49.78125 C 72.914062 -49.050781 69.28125 -48.804688 65.40625 -49.046875 C 63.707031 -49.046875 61.707031 -49.226562 59.40625 -49.59375 C 57.101562 -49.957031 55.101562 -50.382812 53.40625 -50.875 C 52.195312 -51.351562 50.867188 -51.835938 49.421875 -52.328125 C 49.421875 -39.722656 49.476562 -27 49.59375 -14.15625 C 49.71875 -1.320312 49.898438 11.507812 50.140625 24.34375 L 15.265625 24.703125 C 15.015625 7.742188 14.828125 -9.332031 14.703125 -26.53125 C 14.585938 -43.726562 14.53125 -60.925781 14.53125 -78.125 C 14.53125 -95.320312 14.710938 -112.519531 15.078125 -129.71875 C 15.441406 -146.914062 15.863281 -163.992188 16.34375 -180.953125 L 51.234375 -180.21875 C 51.234375 -177.5625 51.171875 -174.898438 51.046875 -172.234375 C 50.929688 -169.566406 50.875 -166.898438 50.875 -164.234375 C 51.59375 -164.722656 52.375 -165.023438 53.21875 -165.140625 C 54.070312 -165.265625 54.863281 -165.445312 55.59375 -165.6875 C 62.375 -167.625 69.398438 -168.109375 76.671875 -167.140625 C 83.929688 -166.421875 90.59375 -164.363281 96.65625 -160.96875 C 103.4375 -157.570312 109.128906 -152.847656 113.734375 -146.796875 L 115.546875 -144.609375 C 115.785156 -144.128906 116.023438 -143.707031 116.265625 -143.34375 C 116.515625 -142.976562 116.757812 -142.675781 117 -142.4375 C 117.726562 -140.976562 118.578125 -139.40625 119.546875 -137.71875 C 120.992188 -135.050781 122.203125 -131.898438 123.171875 -128.265625 Z M 89.75 -100.28125 C 90.71875 -102.945312 91.203125 -105.734375 91.203125 -108.640625 C 91.441406 -111.796875 91.078125 -114.828125 90.109375 -117.734375 C 89.378906 -119.421875 88.773438 -120.875 88.296875 -122.09375 C 87.804688 -122.8125 87.441406 -123.414062 87.203125 -123.90625 C 87.203125 -124.144531 87.140625 -124.320312 87.015625 -124.4375 C 86.898438 -124.5625 86.722656 -124.625 86.484375 -124.625 C 86.484375 -124.875 86.359375 -125.117188 86.109375 -125.359375 C 83.203125 -129.472656 78.722656 -131.894531 72.671875 -132.625 C 69.523438 -132.863281 66.738281 -132.625 64.3125 -131.90625 C 62.613281 -131.65625 61.28125 -131.289062 60.3125 -130.8125 C 59.832031 -130.320312 59.289062 -129.894531 58.6875 -129.53125 C 58.082031 -129.175781 57.535156 -128.875 57.046875 -128.625 C 55.109375 -127.175781 53.535156 -125.484375 52.328125 -123.546875 C 51.359375 -121.359375 50.628906 -118.691406 50.140625 -115.546875 L 49.78125 -115.546875 C 49.78125 -112.878906 49.78125 -110.210938 49.78125 -107.546875 C 49.78125 -104.890625 49.78125 -102.347656 49.78125 -99.921875 C 49.78125 -99.679688 49.898438 -99.078125 50.140625 -98.109375 C 50.378906 -97.140625 50.863281 -96.050781 51.59375 -94.84375 C 53.050781 -92.414062 54.867188 -90.234375 57.046875 -88.296875 C 59.472656 -86.117188 61.773438 -84.785156 63.953125 -84.296875 C 63.953125 -84.296875 64.070312 -84.175781 64.3125 -83.9375 C 64.550781 -83.9375 64.671875 -83.9375 64.671875 -83.9375 C 64.671875 -83.9375 64.796875 -83.9375 65.046875 -83.9375 C 65.046875 -83.9375 65.53125 -83.9375 66.5 -83.9375 C 67.945312 -83.9375 69.15625 -84.054688 70.125 -84.296875 C 72.789062 -84.535156 75.457031 -85.503906 78.125 -87.203125 C 81.03125 -88.898438 83.453125 -90.835938 85.390625 -93.015625 C 87.328125 -95.441406 88.78125 -97.863281 89.75 -100.28125 Z M 89.75 -100.28125 "/></g></g></g></g></g><g clip-path="url(#23b0e99b3d)"><g clip-path="url(#1eece6cbc8)"><path fill="#ffffff" d="M 138.453125 206.121094 L 128.6875 206.121094 L 128.6875 196.355469 L 120.113281 196.355469 L 120.113281 206.121094 L 110.351562 206.121094 L 110.351562 214.695312 L 120.113281 214.695312 L 120.113281 224.457031 L 128.6875 224.457031 L 128.6875 214.695312 L 138.453125 214.695312 L 138.453125 206.121094 " fill-opacity="1" fill-rule="nonzero"/></g></g><g clip-path="url(#14b96cbd88)"><g clip-path="url(#6063a0dc9f)"><g transform="matrix(1, 0, 0, 1, 243, 135)"><g clip-path="url(#7dc0b051f8)"><g clip-path="url(#5ad3abe9e4)"><g clip-path="url(#83cbf671d0)"><path fill="#ffffff" d="M 0.199219 0.484375 L 10.277344 0.484375 L 10.277344 10.5625 L 0.199219 10.5625 Z M 0.199219 0.484375 " fill-opacity="1" fill-rule="nonzero"/></g></g></g></g></g></g><g clip-path="url(#d2ef258510)"><g clip-path="url(#93a1af92d4)"><g transform="matrix(1, 0, 0, 1, 251, 143)"><g clip-path="url(#b44d2348b4)"><g clip-path="url(#c197e32b3f)"><g clip-path="url(#b74c1a5595)"><path fill="#ffffff" d="M 0.683594 0.96875 L 10.761719 0.96875 L 10.761719 11.046875 L 0.683594 11.046875 Z M 0.683594 0.96875 " fill-opacity="1" fill-rule="nonzero"/></g></g></g></g></g></g><g clip-path="url(#810ac9a9e0)"><g clip-path="url(#0937aa7675)"><g transform="matrix(1, 0, 0, 1, 243, 152)"><g clip-path="url(#c788b79722)"><g clip-path="url(#5d2c9e3a5c)"><g clip-path="url(#976f3379e9)"><path fill="#ffffff" d="M 0.199219 0.472656 L 10.277344 0.472656 L 10.277344 10.550781 L 0.199219 10.550781 Z M 0.199219 0.472656 " fill-opacity="1" fill-rule="nonzero"/></g></g></g></g></g></g><g clip-path="url(#83d1271b98)"><g clip-path="url(#92b5cfbfc1)"><g transform="matrix(1, 0, 0, 1, 234, 143)"><g clip-path="url(#e371e6faf8)"><g clip-path="url(#d991daa5c4)"><g clip-path="url(#34ca14096c)"><path fill="#ffffff" d="M 0.714844 0.96875 L 10.792969 0.96875 L 10.792969 11.046875 L 0.714844 11.046875 Z M 0.714844 0.96875 " fill-opacity="1" fill-rule="nonzero"/></g></g></g></g></g></g><g transform="matrix(1, 0, 0, 1, 99, 292)"><g clip-path="url(#6089affb4f)"><g fill="#0b0b0b" fill-opacity="1"><g transform="translate(0.60968, 54.182429)"><g><path d="M 14.671875 -36.28125 L 19.875 -35.953125 C 19.6875 -33.390625 19.507812 -30.816406 19.34375 -28.234375 C 19.1875 -25.648438 19.035156 -23.078125 18.890625 -20.515625 C 18.742188 -17.953125 18.617188 -15.390625 18.515625 -12.828125 C 18.410156 -10.265625 18.320312 -7.722656 18.25 -5.203125 L 13.046875 -5.3125 C 13.046875 -5.519531 13.046875 -5.734375 13.046875 -5.953125 C 13.046875 -6.171875 13.046875 -6.390625 13.046875 -6.609375 C 12.867188 -6.566406 12.707031 -6.53125 12.5625 -6.5 C 12.488281 -6.457031 12.414062 -6.4375 12.34375 -6.4375 C 12.269531 -6.4375 12.195312 -6.421875 12.125 -6.390625 C 12.019531 -6.390625 11.929688 -6.378906 11.859375 -6.359375 C 11.785156 -6.335938 11.710938 -6.328125 11.640625 -6.328125 C 11.535156 -6.328125 11.410156 -6.328125 11.265625 -6.328125 C 11.117188 -6.328125 10.972656 -6.328125 10.828125 -6.328125 C 10.359375 -6.328125 9.835938 -6.382812 9.265625 -6.5 C 8.242188 -6.75 7.285156 -7.144531 6.390625 -7.6875 C 5.597656 -8.226562 4.859375 -8.894531 4.171875 -9.6875 C 4.023438 -9.90625 3.878906 -10.101562 3.734375 -10.28125 C 3.660156 -10.394531 3.585938 -10.503906 3.515625 -10.609375 C 3.441406 -10.722656 3.367188 -10.832031 3.296875 -10.9375 C 3.222656 -11.039062 3.160156 -11.15625 3.109375 -11.28125 C 3.054688 -11.414062 2.992188 -11.535156 2.921875 -11.640625 C 2.816406 -11.929688 2.726562 -12.179688 2.65625 -12.390625 C 2.332031 -13.335938 2.171875 -14.332031 2.171875 -15.375 C 2.171875 -16.382812 2.347656 -17.378906 2.703125 -18.359375 L 2.8125 -18.734375 L 2.984375 -19.0625 C 3.015625 -19.164062 3.054688 -19.269531 3.109375 -19.375 C 3.160156 -19.488281 3.222656 -19.617188 3.296875 -19.765625 C 3.335938 -19.867188 3.394531 -19.972656 3.46875 -20.078125 C 3.539062 -20.191406 3.613281 -20.300781 3.6875 -20.40625 C 3.71875 -20.476562 3.785156 -20.585938 3.890625 -20.734375 L 4.171875 -21.0625 C 4.816406 -21.894531 5.664062 -22.5625 6.71875 -23.0625 C 7.65625 -23.53125 8.644531 -23.820312 9.6875 -23.9375 C 11.09375 -24.113281 12.484375 -23.910156 13.859375 -23.328125 C 13.960938 -25.492188 14.085938 -27.660156 14.234375 -29.828125 C 14.378906 -31.992188 14.523438 -34.144531 14.671875 -36.28125 Z M 13.3125 -13.640625 C 13.351562 -14.109375 13.378906 -14.578125 13.390625 -15.046875 C 13.410156 -15.515625 13.441406 -15.984375 13.484375 -16.453125 C 13.410156 -16.847656 13.300781 -17.15625 13.15625 -17.375 C 13.007812 -17.695312 12.789062 -17.96875 12.5 -18.1875 C 11.820312 -18.695312 11.066406 -18.894531 10.234375 -18.78125 C 9.328125 -18.675781 8.640625 -18.335938 8.171875 -17.765625 C 8.171875 -17.722656 8.15625 -17.6875 8.125 -17.65625 C 8.082031 -17.613281 8.046875 -17.578125 8.015625 -17.546875 C 8.015625 -17.503906 7.992188 -17.460938 7.953125 -17.421875 C 7.921875 -17.390625 7.882812 -17.335938 7.84375 -17.265625 C 7.769531 -17.117188 7.734375 -17.03125 7.734375 -17 L 7.640625 -16.84375 L 7.578125 -16.671875 C 7.429688 -16.242188 7.359375 -15.796875 7.359375 -15.328125 C 7.359375 -14.890625 7.429688 -14.472656 7.578125 -14.078125 C 7.578125 -14.003906 7.613281 -13.914062 7.6875 -13.8125 C 7.6875 -13.738281 7.703125 -13.679688 7.734375 -13.640625 C 7.773438 -13.609375 7.796875 -13.570312 7.796875 -13.53125 C 7.828125 -13.5 7.859375 -13.460938 7.890625 -13.421875 C 7.929688 -13.390625 7.953125 -13.335938 7.953125 -13.265625 C 8.023438 -13.191406 8.097656 -13.101562 8.171875 -13 C 8.828125 -12.238281 9.566406 -11.769531 10.390625 -11.59375 C 10.609375 -11.550781 10.789062 -11.53125 10.9375 -11.53125 C 10.96875 -11.53125 11.007812 -11.53125 11.0625 -11.53125 C 11.125 -11.53125 11.171875 -11.53125 11.203125 -11.53125 C 11.203125 -11.53125 11.238281 -11.53125 11.3125 -11.53125 C 11.351562 -11.53125 11.375 -11.53125 11.375 -11.53125 C 11.375 -11.53125 11.390625 -11.53125 11.421875 -11.53125 C 11.710938 -11.632812 12.003906 -11.796875 12.296875 -12.015625 C 12.617188 -12.265625 12.867188 -12.554688 13.046875 -12.890625 C 13.148438 -13.066406 13.21875 -13.21875 13.25 -13.34375 C 13.289062 -13.46875 13.3125 -13.566406 13.3125 -13.640625 Z M 13.3125 -13.640625 "/></g></g></g><g fill="#0b0b0b" fill-opacity="1"><g transform="translate(27.567688, 54.182429)"><g><path d="M 7.734375 -21.109375 C 7.773438 -18.660156 7.847656 -16.207031 7.953125 -13.75 C 8.066406 -11.289062 8.195312 -8.835938 8.34375 -6.390625 L 3.140625 -6.125 C 2.992188 -8.570312 2.863281 -11.039062 2.75 -13.53125 C 2.644531 -16.019531 2.578125 -18.507812 2.546875 -21 Z M 5.140625 -23.828125 C 4.347656 -23.785156 3.660156 -24.046875 3.078125 -24.609375 C 2.503906 -25.171875 2.203125 -25.847656 2.171875 -26.640625 C 2.128906 -27.429688 2.390625 -28.113281 2.953125 -28.6875 C 3.515625 -29.269531 4.191406 -29.578125 4.984375 -29.609375 C 5.773438 -29.648438 6.46875 -29.390625 7.0625 -28.828125 C 7.65625 -28.265625 7.953125 -27.585938 7.953125 -26.796875 C 7.992188 -26.003906 7.734375 -25.316406 7.171875 -24.734375 C 6.609375 -24.160156 5.929688 -23.859375 5.140625 -23.828125 Z M 5.140625 -23.828125 "/></g></g></g><g fill="#0b0b0b" fill-opacity="1"><g transform="translate(42.996287, 54.182429)"><g><path d="M 15.484375 -10.875 L 15.484375 -10.609375 C 15.585938 -9.921875 15.570312 -9.21875 15.4375 -8.5 C 15.289062 -7.738281 15 -7.050781 14.5625 -6.4375 C 14.132812 -5.820312 13.628906 -5.304688 13.046875 -4.890625 C 12.472656 -4.484375 11.859375 -4.1875 11.203125 -4 C 10.585938 -3.820312 9.941406 -3.734375 9.265625 -3.734375 C 8.609375 -3.734375 7.957031 -3.804688 7.3125 -3.953125 C 6.039062 -4.316406 4.9375 -5.003906 4 -6.015625 C 3.601562 -6.484375 3.257812 -6.988281 2.96875 -7.53125 C 2.6875 -8.070312 2.457031 -8.613281 2.28125 -9.15625 L 7.25 -10.671875 C 7.394531 -10.203125 7.613281 -9.820312 7.90625 -9.53125 C 8.125 -9.238281 8.394531 -9.054688 8.71875 -8.984375 C 8.894531 -8.953125 9.054688 -8.9375 9.203125 -8.9375 C 9.378906 -8.9375 9.539062 -8.953125 9.6875 -8.984375 C 9.9375 -9.054688 10.132812 -9.179688 10.28125 -9.359375 C 10.320312 -9.398438 10.34375 -9.472656 10.34375 -9.578125 C 10.375 -9.691406 10.375 -9.800781 10.34375 -9.90625 L 10.34375 -10.015625 C 10.300781 -10.046875 10.28125 -10.097656 10.28125 -10.171875 C 10.28125 -10.171875 10.28125 -10.179688 10.28125 -10.203125 C 10.28125 -10.222656 10.265625 -10.234375 10.234375 -10.234375 C 10.234375 -10.234375 10.234375 -10.238281 10.234375 -10.25 C 10.234375 -10.269531 10.234375 -10.28125 10.234375 -10.28125 C 10.191406 -10.320312 10.171875 -10.34375 10.171875 -10.34375 C 10.210938 -10.300781 10.195312 -10.335938 10.125 -10.453125 L 10.0625 -10.5 C 10.101562 -10.46875 10.085938 -10.46875 10.015625 -10.5 C 9.941406 -10.613281 9.742188 -10.773438 9.421875 -10.984375 C 9.171875 -11.128906 8.878906 -11.296875 8.546875 -11.484375 L 7.421875 -12.078125 C 7.234375 -12.179688 7.03125 -12.296875 6.8125 -12.421875 C 6.601562 -12.546875 6.375 -12.703125 6.125 -12.890625 L 5.46875 -13.421875 C 5.25 -13.609375 5.050781 -13.789062 4.875 -13.96875 C 4.476562 -14.332031 4.117188 -14.765625 3.796875 -15.265625 C 3.429688 -15.734375 3.140625 -16.238281 2.921875 -16.78125 C 2.671875 -17.363281 2.488281 -17.941406 2.375 -18.515625 C 2.269531 -19.203125 2.238281 -19.832031 2.28125 -20.40625 C 2.34375 -20.988281 2.46875 -21.601562 2.65625 -22.25 C 3.082031 -23.582031 3.835938 -24.664062 4.921875 -25.5 C 6.046875 -26.332031 7.3125 -26.765625 8.71875 -26.796875 C 10.09375 -26.835938 11.351562 -26.515625 12.5 -25.828125 L 12.890625 -25.546875 C 12.960938 -25.515625 13.03125 -25.476562 13.09375 -25.4375 C 13.164062 -25.40625 13.238281 -25.351562 13.3125 -25.28125 C 13.457031 -25.132812 13.585938 -25.007812 13.703125 -24.90625 C 13.804688 -24.832031 13.929688 -24.707031 14.078125 -24.53125 C 14.296875 -24.269531 14.484375 -24.015625 14.640625 -23.765625 C 14.804688 -23.515625 14.960938 -23.265625 15.109375 -23.015625 C 15.609375 -22.035156 15.953125 -20.96875 16.140625 -19.8125 L 10.984375 -19.0625 C 10.878906 -19.632812 10.71875 -20.15625 10.5 -20.625 C 10.394531 -20.800781 10.285156 -20.960938 10.171875 -21.109375 C 10.097656 -21.148438 10.0625 -21.171875 10.0625 -21.171875 C 10.0625 -21.203125 10.0625 -21.21875 10.0625 -21.21875 C 10.0625 -21.21875 10.03125 -21.238281 9.96875 -21.28125 C 9.925781 -21.3125 9.890625 -21.328125 9.859375 -21.328125 C 9.566406 -21.515625 9.238281 -21.609375 8.875 -21.609375 C 8.550781 -21.609375 8.300781 -21.515625 8.125 -21.328125 C 7.863281 -21.148438 7.679688 -20.898438 7.578125 -20.578125 C 7.503906 -20.359375 7.46875 -20.175781 7.46875 -20.03125 C 7.46875 -19.882812 7.488281 -19.6875 7.53125 -19.4375 C 7.5625 -19.257812 7.613281 -19.0625 7.6875 -18.84375 C 7.789062 -18.625 7.914062 -18.425781 8.0625 -18.25 C 8.207031 -17.988281 8.367188 -17.789062 8.546875 -17.65625 C 8.617188 -17.582031 8.710938 -17.488281 8.828125 -17.375 L 8.984375 -17.21875 L 9.15625 -17.109375 C 9.363281 -16.960938 9.632812 -16.800781 9.96875 -16.625 L 11.046875 -16.078125 C 11.472656 -15.828125 11.867188 -15.578125 12.234375 -15.328125 C 12.484375 -15.179688 12.71875 -15.023438 12.9375 -14.859375 C 13.15625 -14.703125 13.390625 -14.515625 13.640625 -14.296875 C 13.710938 -14.179688 13.769531 -14.125 13.8125 -14.125 L 13.96875 -13.921875 C 14 -13.878906 14.039062 -13.820312 14.09375 -13.75 C 14.15625 -13.675781 14.222656 -13.601562 14.296875 -13.53125 C 14.398438 -13.382812 14.492188 -13.238281 14.578125 -13.09375 C 14.671875 -12.957031 14.773438 -12.796875 14.890625 -12.609375 C 14.960938 -12.460938 15.035156 -12.300781 15.109375 -12.125 C 15.179688 -11.945312 15.253906 -11.769531 15.328125 -11.59375 L 15.4375 -11.09375 Z M 15.484375 -10.875 "/></g></g></g><g fill="#0b0b0b" fill-opacity="1"><g transform="translate(66.219127, 54.182429)"><g><path d="M 18.359375 -19.109375 C 18.679688 -18.171875 18.84375 -17.179688 18.84375 -16.140625 C 18.800781 -15.054688 18.601562 -14.023438 18.25 -13.046875 C 18.0625 -12.578125 17.8125 -12.109375 17.5 -11.640625 C 17.195312 -11.171875 16.90625 -10.753906 16.625 -10.390625 C 15.9375 -9.671875 15.160156 -9.039062 14.296875 -8.5 C 13.859375 -8.25 13.382812 -8.023438 12.875 -7.828125 C 12.375 -7.628906 11.875 -7.492188 11.375 -7.421875 C 10.863281 -7.304688 10.320312 -7.269531 9.75 -7.3125 C 9.488281 -7.3125 9.1875 -7.335938 8.84375 -7.390625 C 8.507812 -7.441406 8.210938 -7.503906 7.953125 -7.578125 C 7.773438 -7.648438 7.578125 -7.722656 7.359375 -7.796875 C 7.359375 -5.921875 7.367188 -4.023438 7.390625 -2.109375 C 7.410156 -0.191406 7.4375 1.71875 7.46875 3.625 L 2.28125 3.6875 C 2.238281 1.15625 2.207031 -1.390625 2.1875 -3.953125 C 2.175781 -6.515625 2.171875 -9.078125 2.171875 -11.640625 C 2.171875 -14.203125 2.195312 -16.765625 2.25 -19.328125 C 2.300781 -21.890625 2.363281 -24.4375 2.4375 -26.96875 L 7.640625 -26.859375 C 7.640625 -26.460938 7.628906 -26.0625 7.609375 -25.65625 C 7.585938 -25.257812 7.578125 -24.863281 7.578125 -24.46875 C 7.679688 -24.539062 7.796875 -24.585938 7.921875 -24.609375 C 8.054688 -24.628906 8.175781 -24.65625 8.28125 -24.6875 C 9.289062 -24.976562 10.335938 -25.050781 11.421875 -24.90625 C 12.503906 -24.800781 13.5 -24.492188 14.40625 -23.984375 C 15.414062 -23.472656 16.265625 -22.769531 16.953125 -21.875 L 17.21875 -21.546875 C 17.25 -21.472656 17.28125 -21.410156 17.3125 -21.359375 C 17.351562 -21.304688 17.394531 -21.257812 17.4375 -21.21875 C 17.539062 -21 17.664062 -20.765625 17.8125 -20.515625 C 18.03125 -20.117188 18.210938 -19.648438 18.359375 -19.109375 Z M 13.375 -14.9375 C 13.519531 -15.332031 13.59375 -15.75 13.59375 -16.1875 C 13.625 -16.65625 13.566406 -17.109375 13.421875 -17.546875 C 13.316406 -17.796875 13.226562 -18.007812 13.15625 -18.1875 C 13.082031 -18.300781 13.03125 -18.394531 13 -18.46875 C 13 -18.5 12.988281 -18.519531 12.96875 -18.53125 C 12.945312 -18.550781 12.921875 -18.5625 12.890625 -18.5625 C 12.890625 -18.601562 12.867188 -18.640625 12.828125 -18.671875 C 12.398438 -19.285156 11.734375 -19.648438 10.828125 -19.765625 C 10.359375 -19.796875 9.941406 -19.757812 9.578125 -19.65625 C 9.328125 -19.613281 9.128906 -19.554688 8.984375 -19.484375 C 8.910156 -19.410156 8.828125 -19.347656 8.734375 -19.296875 C 8.648438 -19.242188 8.570312 -19.203125 8.5 -19.171875 C 8.207031 -18.953125 7.972656 -18.695312 7.796875 -18.40625 C 7.648438 -18.082031 7.539062 -17.6875 7.46875 -17.21875 L 7.421875 -17.21875 C 7.421875 -16.820312 7.421875 -16.425781 7.421875 -16.03125 C 7.421875 -15.632812 7.421875 -15.253906 7.421875 -14.890625 C 7.421875 -14.847656 7.4375 -14.753906 7.46875 -14.609375 C 7.507812 -14.472656 7.582031 -14.3125 7.6875 -14.125 C 7.90625 -13.769531 8.175781 -13.445312 8.5 -13.15625 C 8.863281 -12.832031 9.207031 -12.632812 9.53125 -12.5625 C 9.53125 -12.5625 9.546875 -12.539062 9.578125 -12.5 C 9.617188 -12.5 9.640625 -12.5 9.640625 -12.5 C 9.640625 -12.5 9.65625 -12.5 9.6875 -12.5 C 9.6875 -12.5 9.757812 -12.5 9.90625 -12.5 C 10.125 -12.5 10.304688 -12.519531 10.453125 -12.5625 C 10.847656 -12.59375 11.242188 -12.738281 11.640625 -13 C 12.078125 -13.25 12.4375 -13.535156 12.71875 -13.859375 C 13.007812 -14.222656 13.226562 -14.582031 13.375 -14.9375 Z M 13.375 -14.9375 "/></g></g></g><g fill="#0b0b0b" fill-opacity="1"><g transform="translate(92.040248, 54.182429)"><g><path d="M 7.359375 -35.359375 L 7.46875 -4 L 2.28125 -3.953125 L 2.171875 -35.359375 Z M 7.359375 -35.359375 "/></g></g></g><g fill="#0b0b0b" fill-opacity="1"><g transform="translate(106.547882, 54.182429)"><g><path d="M 15.328125 -13.375 C 15.398438 -10.59375 15.398438 -7.847656 15.328125 -5.140625 L 10.125 -5.359375 C 10.125 -5.460938 10.125 -5.585938 10.125 -5.734375 C 10.125 -5.878906 10.125 -6.007812 10.125 -6.125 C 9.945312 -6.082031 9.820312 -6.0625 9.75 -6.0625 C 9.382812 -5.988281 9.003906 -5.9375 8.609375 -5.90625 C 8.503906 -5.90625 8.40625 -5.894531 8.3125 -5.875 C 8.21875 -5.851562 8.117188 -5.84375 8.015625 -5.84375 C 7.898438 -5.84375 7.789062 -5.84375 7.6875 -5.84375 C 7.582031 -5.84375 7.472656 -5.863281 7.359375 -5.90625 C 5.554688 -6.082031 4.023438 -6.835938 2.765625 -8.171875 C 2.148438 -8.859375 1.695312 -9.632812 1.40625 -10.5 C 1.113281 -11.40625 1.023438 -12.304688 1.140625 -13.203125 C 1.210938 -14.078125 1.460938 -14.910156 1.890625 -15.703125 C 2.078125 -16.054688 2.3125 -16.4375 2.59375 -16.84375 C 2.882812 -17.164062 3.191406 -17.472656 3.515625 -17.765625 C 4.171875 -18.335938 4.882812 -18.773438 5.65625 -19.078125 C 6.4375 -19.390625 7.222656 -19.5625 8.015625 -19.59375 C 8.628906 -19.632812 9.242188 -19.617188 9.859375 -19.546875 C 9.816406 -19.796875 9.785156 -20.046875 9.765625 -20.296875 C 9.753906 -20.554688 9.726562 -20.8125 9.6875 -21.0625 C 9.613281 -21.632812 9.503906 -22.140625 9.359375 -22.578125 C 9.222656 -23.003906 9.046875 -23.382812 8.828125 -23.71875 C 8.640625 -23.96875 8.476562 -24.128906 8.34375 -24.203125 C 8.125 -24.304688 7.921875 -24.34375 7.734375 -24.3125 C 7.671875 -24.3125 7.601562 -24.289062 7.53125 -24.25 C 7.457031 -24.21875 7.382812 -24.179688 7.3125 -24.140625 C 7.195312 -24.035156 7.125 -23.945312 7.09375 -23.875 L 7.03125 -23.875 C 7.03125 -23.875 7.015625 -23.835938 6.984375 -23.765625 L 6.875 -23.546875 L 6.65625 -23.21875 C 6.550781 -23.039062 6.476562 -22.914062 6.4375 -22.84375 C 6.40625 -22.769531 6.390625 -22.628906 6.390625 -22.421875 C 6.347656 -22.203125 6.316406 -21.925781 6.296875 -21.59375 C 6.285156 -21.269531 6.28125 -20.945312 6.28125 -20.625 L 1.078125 -20.734375 C 1.078125 -21.097656 1.085938 -21.453125 1.109375 -21.796875 C 1.128906 -22.140625 1.15625 -22.523438 1.1875 -22.953125 C 1.226562 -23.171875 1.265625 -23.414062 1.296875 -23.6875 C 1.335938 -23.957031 1.410156 -24.238281 1.515625 -24.53125 C 1.617188 -24.8125 1.734375 -25.066406 1.859375 -25.296875 C 1.992188 -25.535156 2.113281 -25.75 2.21875 -25.9375 C 2.289062 -26.082031 2.398438 -26.257812 2.546875 -26.46875 L 2.703125 -26.6875 L 2.765625 -26.796875 L 2.875 -26.96875 C 3.195312 -27.394531 3.59375 -27.804688 4.0625 -28.203125 C 5 -28.960938 6.082031 -29.394531 7.3125 -29.5 C 7.882812 -29.539062 8.457031 -29.503906 9.03125 -29.390625 C 9.613281 -29.285156 10.160156 -29.109375 10.671875 -28.859375 C 11.171875 -28.609375 11.640625 -28.265625 12.078125 -27.828125 C 12.429688 -27.503906 12.773438 -27.109375 13.109375 -26.640625 C 13.390625 -26.242188 13.628906 -25.835938 13.828125 -25.421875 C 14.023438 -25.003906 14.179688 -24.578125 14.296875 -24.140625 C 14.441406 -23.710938 14.554688 -23.300781 14.640625 -22.90625 C 14.734375 -22.507812 14.796875 -22.128906 14.828125 -21.765625 C 14.867188 -21.367188 14.90625 -20.988281 14.9375 -20.625 C 14.976562 -20.269531 15.015625 -19.910156 15.046875 -19.546875 C 15.085938 -18.785156 15.125 -18.097656 15.15625 -17.484375 C 15.226562 -16.253906 15.285156 -14.957031 15.328125 -13.59375 C 15.359375 -13.476562 15.375 -13.421875 15.375 -13.421875 L 15.328125 -13.421875 C 15.328125 -13.421875 15.328125 -13.410156 15.328125 -13.390625 C 15.328125 -13.378906 15.328125 -13.375 15.328125 -13.375 Z M 9.46875 -11.421875 C 9.65625 -11.535156 9.820312 -11.679688 9.96875 -11.859375 C 10.03125 -11.960938 10.097656 -12.085938 10.171875 -12.234375 C 10.171875 -12.378906 10.171875 -12.539062 10.171875 -12.71875 C 10.171875 -12.90625 10.15625 -13.085938 10.125 -13.265625 C 10.082031 -13.628906 9.9375 -13.898438 9.6875 -14.078125 C 9.539062 -14.222656 9.363281 -14.3125 9.15625 -14.34375 C 8.894531 -14.414062 8.640625 -14.4375 8.390625 -14.40625 C 7.816406 -14.363281 7.332031 -14.179688 6.9375 -13.859375 C 6.570312 -13.566406 6.351562 -13.171875 6.28125 -12.671875 C 6.28125 -12.484375 6.296875 -12.300781 6.328125 -12.125 C 6.398438 -11.976562 6.492188 -11.832031 6.609375 -11.6875 C 6.960938 -11.289062 7.375 -11.078125 7.84375 -11.046875 C 7.882812 -11.046875 7.910156 -11.046875 7.921875 -11.046875 C 7.941406 -11.046875 7.972656 -11.046875 8.015625 -11.046875 C 8.015625 -11.046875 8.039062 -11.046875 8.09375 -11.046875 C 8.144531 -11.046875 8.191406 -11.046875 8.234375 -11.046875 C 8.378906 -11.078125 8.539062 -11.113281 8.71875 -11.15625 C 8.96875 -11.1875 9.21875 -11.273438 9.46875 -11.421875 Z M 9.46875 -11.421875 "/></g></g></g><g fill="#0b0b0b" fill-opacity="1"><g transform="translate(129.067481, 54.182429)"><g><path d="M 13.046875 -26.359375 L 18.25 -26.359375 C 18.25 -24.804688 18.226562 -23.253906 18.1875 -21.703125 C 18.15625 -20.148438 18.101562 -18.597656 18.03125 -17.046875 L 17.765625 -7.796875 C 17.722656 -7.398438 17.691406 -6.984375 17.671875 -6.546875 C 17.660156 -6.117188 17.617188 -5.6875 17.546875 -5.25 C 17.472656 -4.820312 17.390625 -4.367188 17.296875 -3.890625 C 17.203125 -3.421875 17.066406 -2.953125 16.890625 -2.484375 C 16.671875 -1.941406 16.4375 -1.457031 16.1875 -1.03125 C 16.039062 -0.78125 15.867188 -0.523438 15.671875 -0.265625 C 15.472656 -0.015625 15.265625 0.234375 15.046875 0.484375 C 14.503906 0.992188 13.910156 1.375 13.265625 1.625 C 12.617188 1.875 11.929688 2 11.203125 2 C 11.203125 2 11.148438 2 11.046875 2 L 10.453125 2 C 10.378906 2 10.3125 2 10.25 2 C 10.195312 2 10.132812 2 10.0625 2 L 9.640625 1.953125 C 9.171875 1.878906 8.628906 1.75 8.015625 1.5625 C 7.867188 1.5 7.734375 1.4375 7.609375 1.375 C 7.484375 1.320312 7.347656 1.257812 7.203125 1.1875 C 7.054688 1.113281 6.921875 1.039062 6.796875 0.96875 C 6.671875 0.894531 6.535156 0.828125 6.390625 0.765625 C 6.242188 0.648438 6.113281 0.546875 6 0.453125 C 5.894531 0.367188 5.769531 0.269531 5.625 0.15625 C 5.519531 0.0507812 5.410156 -0.0507812 5.296875 -0.15625 C 5.191406 -0.269531 5.085938 -0.398438 4.984375 -0.546875 C 4.585938 -1.015625 4.269531 -1.507812 4.03125 -2.03125 C 3.800781 -2.550781 3.613281 -3.066406 3.46875 -3.578125 C 3.351562 -4.117188 3.269531 -4.628906 3.21875 -5.109375 C 3.164062 -5.597656 3.140625 -6.097656 3.140625 -6.609375 L 8.34375 -6.4375 C 8.34375 -5.863281 8.394531 -5.34375 8.5 -4.875 C 8.601562 -4.4375 8.765625 -4.09375 8.984375 -3.84375 C 9.203125 -3.625 9.457031 -3.460938 9.75 -3.359375 C 9.820312 -3.316406 9.910156 -3.285156 10.015625 -3.265625 C 10.117188 -3.253906 10.226562 -3.226562 10.34375 -3.1875 L 10.5 -3.1875 C 10.539062 -3.1875 10.578125 -3.1875 10.609375 -3.1875 C 10.648438 -3.1875 10.6875 -3.1875 10.71875 -3.1875 L 11.09375 -3.1875 C 11.164062 -3.1875 11.238281 -3.1875 11.3125 -3.1875 C 11.351562 -3.226562 11.410156 -3.265625 11.484375 -3.296875 C 11.660156 -3.484375 11.820312 -3.8125 11.96875 -4.28125 C 12.144531 -4.75 12.285156 -5.328125 12.390625 -6.015625 C 12.460938 -6.585938 12.519531 -7.253906 12.5625 -8.015625 L 12.671875 -11.3125 C 12.453125 -11.207031 12.234375 -11.132812 12.015625 -11.09375 C 11.222656 -10.882812 10.429688 -10.796875 9.640625 -10.828125 C 8.734375 -10.898438 7.898438 -11.132812 7.140625 -11.53125 C 6.785156 -11.707031 6.441406 -11.910156 6.109375 -12.140625 C 5.785156 -12.378906 5.5 -12.644531 5.25 -12.9375 C 5 -13.1875 4.765625 -13.445312 4.546875 -13.71875 C 4.328125 -13.988281 4.128906 -14.269531 3.953125 -14.5625 C 3.585938 -15.144531 3.300781 -15.757812 3.09375 -16.40625 C 2.832031 -17.019531 2.640625 -17.640625 2.515625 -18.265625 C 2.390625 -18.898438 2.3125 -19.507812 2.28125 -20.09375 C 2.207031 -21.3125 2.203125 -22.441406 2.265625 -23.484375 C 2.335938 -24.535156 2.375 -25.53125 2.375 -26.46875 L 7.578125 -26.421875 C 7.578125 -25.304688 7.539062 -24.25 7.46875 -23.25 C 7.394531 -22.257812 7.394531 -21.347656 7.46875 -20.515625 C 7.539062 -19.648438 7.703125 -18.894531 7.953125 -18.25 C 8.066406 -17.925781 8.210938 -17.617188 8.390625 -17.328125 C 8.566406 -17.003906 8.765625 -16.75 8.984375 -16.5625 C 9.171875 -16.382812 9.351562 -16.242188 9.53125 -16.140625 C 9.632812 -16.066406 9.78125 -16.03125 9.96875 -16.03125 C 10.394531 -15.988281 10.84375 -16.113281 11.3125 -16.40625 C 11.382812 -16.4375 11.476562 -16.507812 11.59375 -16.625 C 11.65625 -16.695312 11.722656 -16.769531 11.796875 -16.84375 C 11.941406 -17.050781 12.085938 -17.320312 12.234375 -17.65625 C 12.523438 -18.226562 12.757812 -18.929688 12.9375 -19.765625 C 12.9375 -20.847656 12.953125 -21.945312 12.984375 -23.0625 C 13.023438 -24.1875 13.046875 -25.285156 13.046875 -26.359375 Z M 13.046875 -26.359375 "/></g></g></g><g fill="#0b0b0b" fill-opacity="1"><g transform="translate(154.239033, 54.182429)"><g><path d="M 14.671875 -36.28125 L 19.875 -35.953125 C 19.6875 -33.390625 19.507812 -30.816406 19.34375 -28.234375 C 19.1875 -25.648438 19.035156 -23.078125 18.890625 -20.515625 C 18.742188 -17.953125 18.617188 -15.390625 18.515625 -12.828125 C 18.410156 -10.265625 18.320312 -7.722656 18.25 -5.203125 L 13.046875 -5.3125 C 13.046875 -5.519531 13.046875 -5.734375 13.046875 -5.953125 C 13.046875 -6.171875 13.046875 -6.390625 13.046875 -6.609375 C 12.867188 -6.566406 12.707031 -6.53125 12.5625 -6.5 C 12.488281 -6.457031 12.414062 -6.4375 12.34375 -6.4375 C 12.269531 -6.4375 12.195312 -6.421875 12.125 -6.390625 C 12.019531 -6.390625 11.929688 -6.378906 11.859375 -6.359375 C 11.785156 -6.335938 11.710938 -6.328125 11.640625 -6.328125 C 11.535156 -6.328125 11.410156 -6.328125 11.265625 -6.328125 C 11.117188 -6.328125 10.972656 -6.328125 10.828125 -6.328125 C 10.359375 -6.328125 9.835938 -6.382812 9.265625 -6.5 C 8.242188 -6.75 7.285156 -7.144531 6.390625 -7.6875 C 5.597656 -8.226562 4.859375 -8.894531 4.171875 -9.6875 C 4.023438 -9.90625 3.878906 -10.101562 3.734375 -10.28125 C 3.660156 -10.394531 3.585938 -10.503906 3.515625 -10.609375 C 3.441406 -10.722656 3.367188 -10.832031 3.296875 -10.9375 C 3.222656 -11.039062 3.160156 -11.15625 3.109375 -11.28125 C 3.054688 -11.414062 2.992188 -11.535156 2.921875 -11.640625 C 2.816406 -11.929688 2.726562 -12.179688 2.65625 -12.390625 C 2.332031 -13.335938 2.171875 -14.332031 2.171875 -15.375 C 2.171875 -16.382812 2.347656 -17.378906 2.703125 -18.359375 L 2.8125 -18.734375 L 2.984375 -19.0625 C 3.015625 -19.164062 3.054688 -19.269531 3.109375 -19.375 C 3.160156 -19.488281 3.222656 -19.617188 3.296875 -19.765625 C 3.335938 -19.867188 3.394531 -19.972656 3.46875 -20.078125 C 3.539062 -20.191406 3.613281 -20.300781 3.6875 -20.40625 C 3.71875 -20.476562 3.785156 -20.585938 3.890625 -20.734375 L 4.171875 -21.0625 C 4.816406 -21.894531 5.664062 -22.5625 6.71875 -23.0625 C 7.65625 -23.53125 8.644531 -23.820312 9.6875 -23.9375 C 11.09375 -24.113281 12.484375 -23.910156 13.859375 -23.328125 C 13.960938 -25.492188 14.085938 -27.660156 14.234375 -29.828125 C 14.378906 -31.992188 14.523438 -34.144531 14.671875 -36.28125 Z M 13.3125 -13.640625 C 13.351562 -14.109375 13.378906 -14.578125 13.390625 -15.046875 C 13.410156 -15.515625 13.441406 -15.984375 13.484375 -16.453125 C 13.410156 -16.847656 13.300781 -17.15625 13.15625 -17.375 C 13.007812 -17.695312 12.789062 -17.96875 12.5 -18.1875 C 11.820312 -18.695312 11.066406 -18.894531 10.234375 -18.78125 C 9.328125 -18.675781 8.640625 -18.335938 8.171875 -17.765625 C 8.171875 -17.722656 8.15625 -17.6875 8.125 -17.65625 C 8.082031 -17.613281 8.046875 -17.578125 8.015625 -17.546875 C 8.015625 -17.503906 7.992188 -17.460938 7.953125 -17.421875 C 7.921875 -17.390625 7.882812 -17.335938 7.84375 -17.265625 C 7.769531 -17.117188 7.734375 -17.03125 7.734375 -17 L 7.640625 -16.84375 L 7.578125 -16.671875 C 7.429688 -16.242188 7.359375 -15.796875 7.359375 -15.328125 C 7.359375 -14.890625 7.429688 -14.472656 7.578125 -14.078125 C 7.578125 -14.003906 7.613281 -13.914062 7.6875 -13.8125 C 7.6875 -13.738281 7.703125 -13.679688 7.734375 -13.640625 C 7.773438 -13.609375 7.796875 -13.570312 7.796875 -13.53125 C 7.828125 -13.5 7.859375 -13.460938 7.890625 -13.421875 C 7.929688 -13.390625 7.953125 -13.335938 7.953125 -13.265625 C 8.023438 -13.191406 8.097656 -13.101562 8.171875 -13 C 8.828125 -12.238281 9.566406 -11.769531 10.390625 -11.59375 C 10.609375 -11.550781 10.789062 -11.53125 10.9375 -11.53125 C 10.96875 -11.53125 11.007812 -11.53125 11.0625 -11.53125 C 11.125 -11.53125 11.171875 -11.53125 11.203125 -11.53125 C 11.203125 -11.53125 11.238281 -11.53125 11.3125 -11.53125 C 11.351562 -11.53125 11.375 -11.53125 11.375 -11.53125 C 11.375 -11.53125 11.390625 -11.53125 11.421875 -11.53125 C 11.710938 -11.632812 12.003906 -11.796875 12.296875 -12.015625 C 12.617188 -12.265625 12.867188 -12.554688 13.046875 -12.890625 C 13.148438 -13.066406 13.21875 -13.21875 13.25 -13.34375 C 13.289062 -13.46875 13.3125 -13.566406 13.3125 -13.640625 Z M 13.3125 -13.640625 "/></g></g></g></g></g></svg>